<?xml version="1.0" standalone="no"?>
<!DOCTYPE svg PUBLIC "-//W3C//DTD SVG 20010904//EN"
 "http://www.w3.org/TR/2001/REC-SVG-20010904/DTD/svg10.dtd">
<svg version="1.0" xmlns="http://www.w3.org/2000/svg"
 width="191.000000pt" height="191.000000pt" viewBox="0 0 191.000000 191.000000"
 preserveAspectRatio="xMidYMid meet">
<metadata>
Created by potrace 1.14, written by Peter Selinger 2001-2017
</metadata>
<g transform="translate(0.000000,191.000000) scale(0.100000,-0.100000)"
fill="#000000" stroke="none">
<path d="M745 1864 c-336 -75 -602 -329 -698 -669 -28 -99 -35 -315 -13 -418
19 -95 64 -213 113 -296 48 -82 187 -228 266 -282 l62 -41 22 29 c13 15 23 24
23 19 0 -5 7 -3 15 4 8 7 15 17 15 23 0 6 -7 2 -15 -9 -8 -10 -15 -16 -15 -12
0 10 62 98 69 98 3 0 14 7 24 14 15 12 16 17 5 41 -11 24 -10 29 7 44 11 9 20
23 20 33 0 9 23 31 50 50 55 36 67 71 27 76 -12 2 -29 14 -38 27 -9 13 -43 37
-77 53 -34 16 -73 42 -87 57 -14 16 -41 45 -60 64 -47 47 -84 106 -100 158
-11 35 -21 46 -55 63 -82 40 -129 135 -129 265 -1 151 36 190 184 190 85 0 86
0 133 40 27 22 68 70 93 106 52 79 56 82 142 127 147 76 169 85 222 89 118 11
304 -66 384 -158 17 -20 41 -41 53 -48 12 -6 24 -19 27 -28 3 -10 19 -27 36
-38 16 -11 34 -31 39 -45 4 -14 25 -66 44 -117 37 -94 39 -104 37 -283 -1 -37
-6 -71 -14 -80 -7 -8 -18 -55 -25 -105 -7 -49 -19 -100 -27 -112 -26 -40 -18
-80 26 -127 22 -24 40 -51 40 -61 0 -10 5 -36 12 -58 11 -35 10 -41 -8 -54
-19 -14 -18 -14 5 -32 23 -17 130 -56 136 -49 16 18 77 126 98 175 54 122 70
205 70 363 1 120 -3 160 -22 230 -88 331 -322 569 -661 672 -90 28 -353 35
-455 12z"/>
<path d="M930 1790 c13 -9 13 -10 -1 -10 -8 0 -40 -18 -70 -41 -35 -27 -45
-39 -29 -34 14 4 32 10 40 12 8 3 -9 -9 -39 -26 -29 -17 -61 -36 -70 -42 -9
-6 -1 2 17 20 18 17 29 31 26 31 -4 0 0 8 9 18 10 10 14 22 10 25 -3 4 3 7 14
7 11 0 26 7 33 15 11 13 9 13 -21 1 -19 -8 -33 -20 -31 -27 2 -6 -4 -9 -12 -6
-8 3 -23 -2 -33 -11 -11 -9 -13 -13 -6 -8 10 6 12 5 7 -7 -3 -9 -19 -20 -35
-26 -52 -18 -171 -157 -148 -172 7 -4 -4 -12 -23 -18 -35 -12 -70 -38 -85 -66
-7 -13 -14 -13 -57 0 -54 17 -130 20 -122 6 4 -5 -3 -7 -14 -4 -11 3 -20 1
-20 -5 0 -5 -8 -9 -17 -8 -23 2 -63 -61 -62 -98 l1 -31 8 32 c10 42 24 59 61
72 35 12 36 8 8 -30 l-20 -29 63 -1 c35 -1 74 -4 88 -8 25 -7 25 -7 -6 -14
-51 -10 -116 -67 -146 -126 -31 -60 -50 -50 -24 13 18 43 13 48 -8 9 l-15 -28
-2 30 c-1 23 -3 25 -6 8 -13 -65 55 -184 122 -214 31 -14 45 -26 45 -39 0 -29
16 -34 115 -36 98 -2 178 -17 183 -34 2 -5 8 -8 13 -4 12 7 116 -23 124 -36 3
-5 0 -19 -7 -32 -7 -13 -13 -24 -14 -25 0 -2 -31 7 -68 19 -38 12 -62 24 -55
29 18 11 -28 22 -65 15 -21 -4 -39 -1 -51 9 -11 8 -40 15 -64 15 -34 0 -42 -3
-37 -15 7 -20 -3 -19 -28 2 -20 18 -20 18 0 -9 10 -14 21 -25 24 -25 10 3 70
-47 121 -100 28 -28 62 -55 77 -59 15 -4 29 -8 32 -9 53 -18 125 -77 146 -118
14 -29 11 -27 -29 15 -31 34 -70 59 -128 86 -74 34 -135 82 -150 119 -2 4 -20
18 -39 31 l-35 23 36 -33 c20 -18 46 -48 58 -65 14 -21 48 -45 94 -68 40 -19
78 -43 85 -55 7 -11 21 -20 31 -20 25 0 43 -23 34 -45 -5 -14 -3 -16 8 -10 12
8 12 6 0 -9 -19 -23 -101 -79 -107 -73 -3 2 15 16 40 31 25 14 48 32 52 39 6
9 4 9 -7 1 -8 -6 -34 -24 -58 -39 -40 -24 -42 -28 -28 -43 13 -13 19 -13 31
-2 10 7 16 8 16 2 0 -6 -9 -14 -21 -17 -12 -4 -18 -13 -15 -20 3 -9 0 -12 -10
-8 -11 4 -12 8 -3 20 11 12 9 12 -14 2 -31 -14 -33 -25 -12 -50 15 -15 13 -19
-25 -49 -37 -29 -79 -83 -51 -66 17 11 13 -3 -10 -35 -11 -16 -24 -27 -29 -24
-5 3 -14 -4 -20 -15 -10 -19 -6 -23 45 -45 30 -14 59 -25 63 -25 4 0 29 38 56
83 26 46 55 93 65 105 16 21 16 20 16 -40 0 -59 2 -63 29 -76 25 -13 36 -12
94 8 37 12 89 32 116 45 28 13 52 23 54 21 1 -2 -8 -16 -21 -32 -13 -16 -45
-60 -70 -99 -46 -69 -47 -70 -24 -76 37 -10 205 8 283 30 93 27 207 79 283
130 54 37 165 139 199 184 12 16 11 17 -11 12 -16 -4 -43 1 -71 14 -44 19 -65
40 -28 27 11 -4 9 0 -5 10 -26 18 -30 49 -9 57 22 9 -1 82 -38 119 -17 18 -31
36 -31 42 -1 6 -6 20 -12 31 -15 28 5 215 23 215 13 0 29 55 22 77 -2 6 5 18
14 25 17 13 18 20 16 208 -1 56 -2 61 -10 33 -5 -21 -15 -33 -25 -33 -13 0
-14 3 -5 12 7 7 12 20 12 30 0 41 -65 135 -117 169 -37 25 -17 24 24 -1 l32
-19 4 22 c3 19 4 18 4 -3 -1 -14 10 -43 24 -65 14 -22 31 -49 38 -60 l13 -20
-7 20 c-22 63 -29 82 -42 100 -7 11 -13 30 -13 43 0 15 -16 40 -40 64 -22 22
-40 44 -40 49 0 5 -12 16 -27 26 -15 10 -44 36 -66 58 -22 22 -34 33 -28 23 9
-12 9 -18 1 -23 -7 -4 -15 -3 -19 1 -3 5 -17 22 -31 38 l-25 30 30 -18 c28
-16 28 -15 -5 13 -20 18 -64 39 -105 52 -38 12 -83 25 -99 30 -41 13 -126 12
-106 -1z m223 -47 c-7 -2 -19 -2 -25 0 -7 3 -2 5 12 5 14 0 19 -2 13 -5z m46
-12 c8 -5 9 -11 3 -15 -5 -3 -15 1 -22 9 -14 16 -3 20 19 6z m-96 -98 c-7 -2
-21 -2 -30 0 -10 3 -4 5 12 5 17 0 24 -2 18 -5z m229 -61 c15 -14 25 -28 23
-32 -3 -5 2 -10 10 -13 7 -3 21 -21 30 -39 l16 -33 -27 34 c-15 18 -41 40 -58
48 l-31 14 30 -6 c30 -5 30 -5 9 12 -11 10 -31 26 -45 35 -19 14 -20 16 -4 11
11 -3 32 -17 47 -31z m123 -72 c3 -5 -10 -1 -29 11 -20 12 -36 23 -36 25 0 7
58 -25 65 -36z m-757 3 c-14 -32 -39 -65 -46 -59 -6 6 40 86 50 86 4 0 2 -12
-4 -27z m593 -20 c13 -16 12 -17 -3 -4 -10 7 -18 15 -18 17 0 8 8 3 21 -13z
m-444 -29 c-3 -3 -12 -4 -19 -1 -8 3 -5 6 6 6 11 1 17 -2 13 -5z m-40 -10 c-3
-3 -12 -4 -19 -1 -8 3 -5 6 6 6 11 1 17 -2 13 -5z m-72 -26 c-22 -11 -53 -32
-70 -47 l-30 -26 25 28 c24 28 85 66 105 66 6 0 -8 -9 -30 -21z m450 -78 c22
-14 64 -36 92 -50 29 -13 51 -25 49 -27 -8 -8 -151 65 -181 92 -33 29 -20 25
40 -15z m-567 -7 c-15 -2 -42 -2 -60 0 -18 2 -6 4 27 4 33 0 48 -2 33 -4z m56
-28 c-7 -19 -14 -44 -14 -55 0 -19 4 -18 53 14 28 19 65 37 81 40 l29 7 -29
-34 c-16 -19 -32 -32 -36 -30 -5 2 -8 -5 -8 -15 0 -11 -7 -25 -16 -33 -23 -19
-44 -64 -44 -96 -1 -28 -1 -28 -25 11 -43 70 -44 149 -4 201 27 34 31 32 13
-10z m701 15 c13 -6 15 -9 5 -9 -8 0 -22 4 -30 9 -18 12 -2 12 25 0z m-472
-57 c-7 -2 -19 -2 -25 0 -7 3 -2 5 12 5 14 0 19 -2 13 -5z m-386 -75 c-2 -13
-4 -5 -4 17 -1 22 1 32 4 23 2 -10 2 -28 0 -40z m-7 -109 c0 -5 -4 -8 -9 -4
-6 3 -19 -5 -30 -17 -12 -12 -21 -17 -21 -10 0 11 38 42 52 42 5 0 8 -5 8 -11z
m108 -9 c4 -12 2 -12 -8 -3 -17 15 -50 -1 -50 -24 0 -14 -2 -15 -12 -4 -11 10
-8 16 11 32 27 22 52 22 59 -1z m-213 -54 c-19 -28 -8 -40 29 -30 59 14 215
-27 398 -105 53 -22 120 -46 149 -52 70 -15 170 -3 211 25 63 42 94 -1 43 -60
-20 -23 -28 -27 -41 -19 -26 17 -22 29 16 41 36 12 48 28 31 39 -6 3 -25 -4
-42 -17 -25 -19 -46 -24 -119 -26 -85 -4 -93 -2 -266 57 -197 66 -331 91 -396
73 -39 -11 -48 -8 -48 17 0 17 36 81 45 81 3 0 -2 -11 -10 -24z m671 -127 c4
-8 1 -8 -14 0 -12 6 -24 16 -28 22 -4 8 -1 8 14 0 12 -6 24 -16 28 -22z m-449
-45 c-3 -3 -12 -4 -19 -1 -8 3 -5 6 6 6 11 1 17 -2 13 -5z m258 -23 c46 -14
61 -24 66 -42 7 -23 7 -23 14 -3 6 19 11 20 67 12 35 -5 75 -4 94 1 29 8 34 7
34 -8 0 -43 -216 -53 -322 -16 -49 17 -61 38 -36 63 15 15 11 15 83 -7z m580
-73 c-13 -66 -27 -98 -48 -109 l-20 -12 20 27 c12 14 26 49 33 76 13 55 25 69
15 18z m82 -194 c-3 -3 -12 -4 -19 -1 -8 3 -5 6 6 6 11 1 17 -2 13 -5z m-697
-64 c0 -5 -2 -10 -4 -10 -3 0 -8 5 -11 10 -3 6 -1 10 4 10 6 0 11 -4 11 -10z
m690 -25 c0 -13 -8 -29 -19 -34 -17 -10 -18 -9 -3 24 19 42 22 43 22 10z
m-726 -21 c4 -15 5 -29 1 -32 -3 -3 -5 0 -5 7 0 7 -4 9 -10 6 -6 -4 -10 5 -10
19 0 34 16 33 24 0z m46 -99 c0 -18 -2 -18 -20 5 -25 32 -25 43 0 28 11 -7 20
-22 20 -33z m-59 -69 c-12 -12 -21 -35 -22 -52 0 -29 0 -29 -10 -5 -8 20 -6
31 11 53 22 30 26 64 8 70 -7 3 -9 11 -4 24 7 16 11 12 23 -24 14 -41 14 -45
-6 -66z m356 58 c-3 -3 -12 -4 -19 -1 -8 3 -5 6 6 6 11 1 17 -2 13 -5z m60 0
c-3 -3 -12 -4 -19 -1 -8 3 -5 6 6 6 11 1 17 -2 13 -5z m-623 -59 c-9 -14 -19
-23 -22 -20 -5 4 26 45 35 45 2 0 -4 -11 -13 -25z m-83 -118 c-10 -9 -11 -8
-5 6 3 10 9 15 12 12 3 -3 0 -11 -7 -18z"/>
<path d="M661 1664 c-17 -14 -31 -31 -31 -37 0 -7 5 -4 11 6 6 10 25 27 42 38
18 10 27 19 20 19 -6 0 -25 -12 -42 -26z"/>
<path d="M577 1553 c-20 -27 -34 -50 -31 -52 2 -2 5 -2 7 0 1 2 17 25 35 52
43 61 34 61 -11 0z"/>
<path d="M470 1445 c-7 -9 -11 -17 -9 -20 3 -2 10 5 17 15 14 24 10 26 -8 5z"/>
<path d="M254 1258 l-19 -23 23 19 c21 18 27 26 19 26 -2 0 -12 -10 -23 -22z"/>
<path d="M1502 850 c0 -14 2 -19 5 -12 2 6 2 18 0 25 -3 6 -5 1 -5 -13z"/>
<path d="M1514 645 c11 -8 23 -15 27 -15 4 0 10 -8 12 -17 4 -17 5 -17 6 -1 1
10 -12 24 -31 33 -29 14 -31 14 -14 0z"/>
<path d="M1620 415 c14 -8 32 -14 40 -14 8 0 0 6 -19 14 -42 19 -54 19 -21 0z"/>
</g>
</svg>
