<svg width="33" height="31" viewBox="0 0 33 31" fill="none" xmlns="http://www.w3.org/2000/svg">
<path d="M30.8716 1L18.5948 10.0151L20.8784 4.70579L30.8716 1Z" fill="#E17726" stroke="#E17726" stroke-width="0.7801" stroke-miterlimit="22.9292" stroke-linecap="round" stroke-linejoin="round"/>
<path d="M2.55212 1L14.7209 10.1035L12.5454 4.70579L2.55212 1Z" fill="#E27625" stroke="#E27625" stroke-width="0.7801" stroke-miterlimit="22.9292" stroke-linecap="round" stroke-linejoin="round"/>
<path d="M26.4506 21.9026L23.1874 26.8584L30.1782 28.7649L32.182 22.0099L26.4506 21.9026Z" fill="#E27625" stroke="#E27625" stroke-width="0.7801" stroke-miterlimit="22.9292" stroke-linecap="round" stroke-linejoin="round"/>
<path d="M1.25443 22.0099L3.24544 28.7649L10.2299 26.8584L6.97303 21.9026L1.25443 22.0099Z" fill="#E27625" stroke="#E27625" stroke-width="0.7801" stroke-miterlimit="22.9292" stroke-linecap="round" stroke-linejoin="round"/>
<path d="M9.85463 13.5379L7.90814 16.4483L14.829 16.7576L14.6 9.36499L9.85463 13.5379Z" fill="#E27625" stroke="#E27625" stroke-width="0.7801" stroke-miterlimit="22.9292" stroke-linecap="round" stroke-linejoin="round"/>
<path d="M23.5755 13.5377L18.7538 9.28271L18.5948 16.7574L25.5156 16.4481L23.5755 13.5377Z" fill="#E27625" stroke="#E27625" stroke-width="0.7801" stroke-miterlimit="22.9292" stroke-linecap="round" stroke-linejoin="round"/>
<path d="M10.2299 26.8583L14.4155 24.8507L10.8088 22.0603L10.2299 26.8583Z" fill="#E27625" stroke="#E27625" stroke-width="0.7801" stroke-miterlimit="22.9292" stroke-linecap="round" stroke-linejoin="round"/>
<path d="M19.0082 24.8507L23.1874 26.8583L22.6149 22.0603L19.0082 24.8507Z" fill="#E27625" stroke="#E27625" stroke-width="0.7801" stroke-miterlimit="22.9292" stroke-linecap="round" stroke-linejoin="round"/>
<path d="M23.1874 26.8586L19.0082 24.8511L19.3453 27.5405L19.3135 28.6831L23.1874 26.8586Z" fill="#D5BFB2" stroke="#D5BFB2" stroke-width="0.7801" stroke-miterlimit="22.9292" stroke-linecap="round" stroke-linejoin="round"/>
<path d="M10.2299 26.8586L14.1166 28.6831L14.0911 27.5405L14.4155 24.8511L10.2299 26.8586Z" fill="#D5BFB2" stroke="#D5BFB2" stroke-width="0.7801" stroke-miterlimit="22.9292" stroke-linecap="round" stroke-linejoin="round"/>
<path d="M14.1865 20.2803L10.7133 19.2702L13.1687 18.1528L14.1865 20.2803Z" fill="#233447" stroke="#233447" stroke-width="0.7801" stroke-miterlimit="22.9292" stroke-linecap="round" stroke-linejoin="round"/>
<path d="M19.2372 20.2803L20.2613 18.1528L22.7231 19.2702L19.2372 20.2803Z" fill="#233447" stroke="#233447" stroke-width="0.7801" stroke-miterlimit="22.9292" stroke-linecap="round" stroke-linejoin="round"/>
<path d="M10.2299 26.8584L10.8342 21.9026L6.97305 22.0099L10.2299 26.8584Z" fill="#CC6228" stroke="#CC6228" stroke-width="0.7801" stroke-miterlimit="22.9292" stroke-linecap="round" stroke-linejoin="round"/>
<path d="M22.5895 21.9026L23.1875 26.8584L26.4507 22.0099L22.5895 21.9026Z" fill="#CC6228" stroke="#CC6228" stroke-width="0.7801" stroke-miterlimit="22.9292" stroke-linecap="round" stroke-linejoin="round"/>
<path d="M25.5156 16.448L18.5948 16.7573L19.2372 20.28L20.2614 18.1525L22.7231 19.27L25.5156 16.448Z" fill="#CC6228" stroke="#CC6228" stroke-width="0.7801" stroke-miterlimit="22.9292" stroke-linecap="round" stroke-linejoin="round"/>
<path d="M10.7134 19.27L13.1688 18.1525L14.1865 20.28L14.829 16.7573L7.90814 16.448L10.7134 19.27Z" fill="#CC6228" stroke="#CC6228" stroke-width="0.7801" stroke-miterlimit="22.9292" stroke-linecap="round" stroke-linejoin="round"/>
<path d="M7.90814 16.448L10.8088 22.0603L10.7134 19.27L7.90814 16.448Z" fill="#E27525" stroke="#E27525" stroke-width="0.7801" stroke-miterlimit="22.9292" stroke-linecap="round" stroke-linejoin="round"/>
<path d="M22.7231 19.27L22.6149 22.0603L25.5156 16.448L22.7231 19.27Z" fill="#E27525" stroke="#E27525" stroke-width="0.7801" stroke-miterlimit="22.9292" stroke-linecap="round" stroke-linejoin="round"/>
<path d="M14.829 16.7576L14.1865 20.2803L15.0007 24.4406L15.1852 18.9608L14.829 16.7576Z" fill="#E27525" stroke="#E27525" stroke-width="0.7801" stroke-miterlimit="22.9292" stroke-linecap="round" stroke-linejoin="round"/>
<path d="M18.5947 16.7576L18.2576 18.9482L18.423 24.4406L19.2372 20.2803L18.5947 16.7576Z" fill="#E27525" stroke="#E27525" stroke-width="0.7801" stroke-miterlimit="22.9292" stroke-linecap="round" stroke-linejoin="round"/>
<path d="M19.2372 20.2801L18.423 24.4404L19.0082 24.8508L22.6149 22.0604L22.7231 19.27L19.2372 20.2801Z" fill="#F5841F" stroke="#F5841F" stroke-width="0.7801" stroke-miterlimit="22.9292" stroke-linecap="round" stroke-linejoin="round"/>
<path d="M10.7133 19.27L10.8088 22.0604L14.4155 24.8508L15.0007 24.4404L14.1865 20.2801L10.7133 19.27Z" fill="#F5841F" stroke="#F5841F" stroke-width="0.7801" stroke-miterlimit="22.9292" stroke-linecap="round" stroke-linejoin="round"/>
<path d="M19.3136 28.6831L19.3454 27.5405L19.0337 27.2753H14.3965L14.0911 27.5405L14.1166 28.6831L10.2299 26.8586L11.5912 27.9634L14.3456 29.851H19.0655L21.8389 27.9634L23.1875 26.8586L19.3136 28.6831Z" fill="#C0AC9D" stroke="#C0AC9D" stroke-width="0.7801" stroke-miterlimit="22.9292" stroke-linecap="round" stroke-linejoin="round"/>
<path d="M19.0082 24.8508L18.423 24.4404H15.0008L14.4155 24.8508L14.0911 27.5402L14.3965 27.275H19.0337L19.3454 27.5402L19.0082 24.8508Z" fill="#161616" stroke="#161616" stroke-width="0.7801" stroke-miterlimit="22.9292" stroke-linecap="round" stroke-linejoin="round"/>
<path d="M31.3932 10.6022L32.4237 5.6275L30.8716 1L19.0082 9.71838L23.5754 13.5378L30.0192 15.4002L31.4441 13.7525L30.8207 13.3105L31.8067 12.4204L31.0561 11.8459L32.0357 11.101L31.3932 10.6022Z" fill="#763E1A" stroke="#763E1A" stroke-width="0.7801" stroke-miterlimit="22.9292" stroke-linecap="round" stroke-linejoin="round"/>
<path d="M1 5.6275L2.04322 10.6022L1.3753 11.101L2.37399 11.8459L1.61702 12.4204L2.60299 13.3105L1.98597 13.7525L3.40449 15.4002L9.85462 13.5378L14.4155 9.71838L2.5521 1L1 5.6275Z" fill="#763E1A" stroke="#763E1A" stroke-width="0.7801" stroke-miterlimit="22.9292" stroke-linecap="round" stroke-linejoin="round"/>
<path d="M30.0192 15.4L23.5754 13.5376L25.5156 16.4479L22.6149 22.0603L26.4507 22.0098H32.182L30.0192 15.4Z" fill="#F5841F" stroke="#F5841F" stroke-width="0.7801" stroke-miterlimit="22.9292" stroke-linecap="round" stroke-linejoin="round"/>
<path d="M9.8546 13.5376L3.40447 15.4L1.25443 22.0098H6.97303L10.8088 22.0603L7.90811 16.4479L9.8546 13.5376Z" fill="#F5841F" stroke="#F5841F" stroke-width="0.7801" stroke-miterlimit="22.9292" stroke-linecap="round" stroke-linejoin="round"/>
<path d="M18.5948 16.7573L19.0082 9.71816L20.8784 4.70557H12.5454L14.4155 9.71816L14.829 16.7573L14.988 18.9732L15.0008 24.4403H18.423L18.4357 18.9732L18.5948 16.7573Z" fill="#F5841F" stroke="#F5841F" stroke-width="0.7801" stroke-miterlimit="22.9292" stroke-linecap="round" stroke-linejoin="round"/>
</svg>
