<svg width="39" height="34" viewBox="0 0 39 34" fill="none" xmlns="http://www.w3.org/2000/svg">
<path fill-rule="evenodd" clip-rule="evenodd" d="M1.30832 5.80602C0 8.07463 0 11.0507 0 17.0029C0 22.9551 0 25.9312 1.30832 28.1998C2.45062 30.2112 4.31017 31.8074 6.58811 32.8481C9.16491 34 12.5453 34 19.3061 34C26.0669 34 29.4473 34 32.0241 32.8481C34.3087 31.8425 36.1217 30.2053 37.3039 28.1998C38.6122 25.9312 38.6122 22.9551 38.6122 17.0029C38.6122 11.0507 38.6122 8.07463 37.3039 5.80602C36.1616 3.79467 34.302 2.19845 32.0241 1.1577C29.4539 0 26.0735 0 19.3127 0C12.5519 0 9.16491 0 6.58811 1.15185C4.31017 2.15752 2.49047 3.79467 1.30832 5.80602ZM28.9027 9.15047C29.2414 9.15047 29.5801 9.26156 29.7926 9.48375C30.045 9.70593 30.1712 9.96905 30.1712 10.2672C30.1313 13.4304 29.9586 15.8511 29.7063 17.7806C29.4539 19.6808 29.0754 21.1309 28.4776 22.2827C28.0991 23.0662 27.6342 23.6977 27.0431 24.2181C26.2794 24.9255 25.436 25.4459 24.5062 25.9663C24.0811 26.1885 23.7026 26.3756 23.2377 26.5978C22.3079 27.0831 21.2918 27.5625 20.1097 28.27C19.6846 28.5331 19.1401 28.5331 18.715 28.27C17.5329 27.5625 16.4769 27.0421 15.5471 26.5978C15.3346 26.4867 15.1221 26.3756 14.9162 26.2996C13.8204 25.7441 12.8043 25.1828 11.9609 24.4402C11.3698 23.9199 10.8651 23.3235 10.4799 22.5809C9.92866 21.5752 9.55011 20.3883 9.29774 18.8623C8.91919 16.8158 8.74652 14.097 8.70667 10.3432C8.70667 10.0451 8.83285 9.74686 9.04537 9.55976C9.29774 9.33757 9.59659 9.22648 9.9353 9.22648H10.44C12.0472 9.22648 15.5538 9.08031 18.5955 6.99295C19.0604 6.69475 19.6913 6.69475 20.1163 6.99295C23.158 9.07446 26.7111 9.22648 28.3183 9.22648H28.823L28.9027 9.15047ZM26.1134 21.546C26.4919 20.8385 26.8306 19.8328 27.083 18.4588C27.3818 16.7866 27.5479 14.477 27.6342 11.3548C25.7747 11.3197 22.5204 10.9806 19.4323 9.16217C16.3441 10.9864 13.1364 11.2846 11.2303 11.3548C11.3167 13.9216 11.4429 15.9329 11.6554 17.5291C11.9077 19.3125 12.2464 20.5403 12.6715 21.3998C12.9703 21.9553 13.2626 22.3646 13.6411 22.7388C14.1458 23.2241 14.7834 23.6334 15.6268 24.0777C15.9655 24.2648 16.3906 24.4519 16.809 24.6741C17.5727 25.0483 18.456 25.4927 19.4323 26.0482C20.4019 25.5278 21.252 25.0834 22.0091 24.7092C22.2216 24.5981 22.474 24.487 22.64 24.3759C23.6959 23.8555 24.4995 23.4112 25.0508 22.885C25.4293 22.5107 25.768 22.1424 26.0669 21.622L26.1134 21.546Z" fill="#3375BB"/>
</svg>
