<svg width="43" height="43" viewBox="0 0 43 43" fill="none" xmlns="http://www.w3.org/2000/svg">
<path d="M21.5 43C33.3741 43 43 33.3741 43 21.5C43 9.62586 33.3741 0 21.5 0C9.62586 0 0 9.62586 0 21.5C0 33.3741 9.62586 43 21.5 43Z" fill="white"/>
<path d="M7.74805 11.4297L10.1387 13.5977L8.97266 14.8984L5.35742 11.5L8.89062 7.82617L10.1504 9.01562L7.74805 11.4297ZM18.1305 15.1387C17.7398 15.4746 17.3023 15.7324 16.818 15.9121C16.3336 16.0918 15.8316 16.1816 15.3121 16.1816C14.9137 16.1816 14.5289 16.1289 14.1578 16.0234C13.7906 15.9219 13.4449 15.7773 13.1207 15.5898C12.8004 15.3984 12.5074 15.1699 12.2418 14.9043C11.9762 14.6387 11.7477 14.3457 11.5563 14.0254C11.3688 13.7012 11.2223 13.3555 11.1168 12.9883C11.0152 12.6172 10.9645 12.2324 10.9645 11.834C10.9645 11.4355 11.0152 11.0508 11.1168 10.6797C11.2223 10.3086 11.3688 9.96289 11.5563 9.64258C11.7477 9.31836 11.9762 9.02344 12.2418 8.75781C12.5074 8.49219 12.8004 8.26562 13.1207 8.07812C13.4449 7.88672 13.7906 7.74023 14.1578 7.63867C14.5289 7.5332 14.9137 7.48047 15.3121 7.48047C15.8316 7.48047 16.3336 7.57031 16.818 7.75C17.3023 7.92578 17.7398 8.18359 18.1305 8.52344L17.2398 9.98828C16.9938 9.72266 16.7027 9.51953 16.3668 9.37891C16.0309 9.23438 15.6793 9.16211 15.3121 9.16211C14.941 9.16211 14.5934 9.23242 14.2691 9.37305C13.9449 9.51367 13.6617 9.70508 13.4195 9.94727C13.1773 10.1855 12.9859 10.4688 12.8453 10.7969C12.7047 11.1211 12.6344 11.4668 12.6344 11.834C12.6344 12.2012 12.7047 12.5469 12.8453 12.8711C12.9859 13.1914 13.1773 13.4727 13.4195 13.7148C13.6617 13.957 13.9449 14.1484 14.2691 14.2891C14.5934 14.4297 14.941 14.5 15.3121 14.5C15.6793 14.5 16.0309 14.4297 16.3668 14.2891C16.7027 14.1445 16.9938 13.9395 17.2398 13.6738L18.1305 15.1387ZM24.7688 16H19.009V7.59766H24.7688V9.2793H20.6906V10.9609H23.4504V12.6426H20.6906V14.3184H24.7688V16ZM32.3738 16H30.3348L28.7176 13.2871L27.0945 16H25.0672L27.6453 11.7988L25.0672 7.59766H27.0945L28.7176 10.3105L30.3348 7.59766H32.3738L29.7957 11.7988L32.3738 16ZM32.8656 9.01562L34.1254 7.82617L37.6586 11.5L34.0434 14.8984L32.8773 13.5977L35.268 11.4297L32.8656 9.01562ZM7.74805 21.4297L10.1387 23.5977L8.97266 24.8984L5.35742 21.5L8.89062 17.8262L10.1504 19.0156L7.74805 21.4297ZM13.1031 19.2793V22.6426H14.7848C15.0152 22.6426 15.232 22.5996 15.4352 22.5137C15.6383 22.4238 15.816 22.3027 15.9684 22.1504C16.1207 21.998 16.2398 21.8203 16.3258 21.6172C16.4156 21.4102 16.4605 21.1914 16.4605 20.9609C16.4605 20.7305 16.4156 20.5137 16.3258 20.3105C16.2398 20.1035 16.1207 19.9238 15.9684 19.7715C15.816 19.6191 15.6383 19.5 15.4352 19.4141C15.232 19.3242 15.0152 19.2793 14.7848 19.2793H13.1031ZM13.1031 26H11.4215V17.5977H14.7848C15.0934 17.5977 15.3902 17.6387 15.6754 17.7207C15.9605 17.7988 16.2262 17.9121 16.4723 18.0605C16.7223 18.2051 16.9488 18.3809 17.152 18.5879C17.359 18.791 17.5348 19.0176 17.6793 19.2676C17.8277 19.5176 17.941 19.7852 18.0191 20.0703C18.1012 20.3555 18.1422 20.6523 18.1422 20.9609C18.1422 21.4219 18.0543 21.8574 17.8785 22.2676C17.7027 22.6738 17.4625 23.0293 17.1578 23.334C16.8531 23.6387 16.4957 23.8789 16.0855 24.0547C15.6793 24.2305 15.2457 24.3184 14.7848 24.3184H13.1031V26ZM24.6516 20.1172C24.6516 20.4648 24.5852 20.793 24.4523 21.1016C24.3195 21.4062 24.1379 21.6738 23.9074 21.9043C23.6809 22.1309 23.4152 22.3105 23.1105 22.4434C22.8059 22.5762 22.4797 22.6426 22.132 22.6426H21.2883C21.1711 22.6426 21.0617 22.6641 20.9602 22.707C20.8586 22.75 20.7688 22.8105 20.6906 22.8887C20.6164 22.9629 20.5578 23.0508 20.5148 23.1523C20.4719 23.2539 20.4504 23.3633 20.4504 23.4805V24.3184H24.423V26H18.7688V23.4805C18.7688 23.1328 18.8352 22.8066 18.968 22.502C19.1008 22.1934 19.2805 21.9258 19.507 21.6992C19.7375 21.4688 20.0051 21.2891 20.3098 21.1602C20.6145 21.0273 20.9406 20.9609 21.2883 20.9609H22.132C22.2492 20.9609 22.3586 20.9395 22.4602 20.8965C22.5617 20.8535 22.6496 20.7949 22.7238 20.7207C22.802 20.6426 22.8625 20.5527 22.9055 20.4512C22.9484 20.3457 22.9699 20.2344 22.9699 20.1172C22.9699 20 22.9484 19.8906 22.9055 19.7891C22.8625 19.6875 22.802 19.5996 22.7238 19.5254C22.6496 19.4473 22.5617 19.3867 22.4602 19.3438C22.3586 19.3008 22.2492 19.2793 22.132 19.2793H19.132V17.5977H22.132C22.4797 17.5977 22.8059 17.6641 23.1105 17.7969C23.4152 17.9297 23.6809 18.1113 23.9074 18.3418C24.1379 18.5684 24.3195 18.834 24.4523 19.1387C24.5852 19.4434 24.6516 19.7695 24.6516 20.1172ZM27.4695 19.2793V22.6426H29.1512C29.3816 22.6426 29.5984 22.5996 29.8016 22.5137C30.0047 22.4238 30.1824 22.3027 30.3348 22.1504C30.4871 21.998 30.6063 21.8203 30.6922 21.6172C30.782 21.4102 30.827 21.1914 30.827 20.9609C30.827 20.7305 30.782 20.5137 30.6922 20.3105C30.6063 20.1035 30.4871 19.9238 30.3348 19.7715C30.1824 19.6191 30.0047 19.5 29.8016 19.4141C29.5984 19.3242 29.3816 19.2793 29.1512 19.2793H27.4695ZM27.4695 26H25.7879V17.5977H29.1512C29.4598 17.5977 29.7566 17.6387 30.0418 17.7207C30.327 17.7988 30.5926 17.9121 30.8387 18.0605C31.0887 18.2051 31.3152 18.3809 31.5184 18.5879C31.7254 18.791 31.9012 19.0176 32.0457 19.2676C32.1941 19.5176 32.3074 19.7852 32.3855 20.0703C32.4676 20.3555 32.5086 20.6523 32.5086 20.9609C32.5086 21.4219 32.4207 21.8574 32.2449 22.2676C32.0691 22.6738 31.8289 23.0293 31.5242 23.334C31.2195 23.6387 30.8621 23.8789 30.452 24.0547C30.0457 24.2305 29.6121 24.3184 29.1512 24.3184H27.4695V26ZM33.2055 19.0156L34.4652 17.8262L37.9984 21.5L34.3832 24.8984L33.2172 23.5977L35.6078 21.4297L33.2055 19.0156ZM7.74805 31.4297L10.1387 33.5977L8.97266 34.8984L5.35742 31.5L8.89062 27.8262L10.1504 29.0156L7.74805 31.4297ZM18.1539 31.7988C18.1539 32.1855 18.1031 32.5586 18.0016 32.918C17.9039 33.2734 17.7633 33.6074 17.5797 33.9199C17.3961 34.2285 17.1773 34.5117 16.9234 34.7695C16.6695 35.0234 16.3863 35.2422 16.0738 35.4258C15.7613 35.6094 15.4254 35.752 15.066 35.8535C14.7105 35.9512 14.3395 36 13.9527 36H11.4215V27.5977H13.9527C14.3395 27.5977 14.7105 27.6484 15.066 27.75C15.4254 27.8477 15.7613 27.9883 16.0738 28.1719C16.3863 28.3555 16.6695 28.5762 16.9234 28.834C17.1773 29.0879 17.3961 29.3711 17.5797 29.6836C17.7633 29.9922 17.9039 30.3262 18.0016 30.6855C18.1031 31.041 18.1539 31.4121 18.1539 31.7988ZM16.4723 31.7988C16.4723 31.4512 16.4059 31.125 16.273 30.8203C16.1441 30.5156 15.9645 30.25 15.734 30.0234C15.5074 29.793 15.2398 29.6113 14.9313 29.4785C14.6266 29.3457 14.3004 29.2793 13.9527 29.2793H13.1148V34.3184H13.9527C14.3004 34.3184 14.6266 34.2539 14.9313 34.125C15.2398 33.9922 15.5074 33.8125 15.734 33.5859C15.9645 33.3555 16.1441 33.0879 16.273 32.7832C16.4059 32.4746 16.4723 32.1465 16.4723 31.7988ZM24.9328 36H19.173V27.5977H24.9328V29.2793H20.8547V30.9609H23.6145V32.6426H20.8547V34.3184H24.9328V36ZM32.5379 36H30.4988L28.8816 33.2871L27.2586 36H25.2313L27.8094 31.7988L25.2313 27.5977H27.2586L28.8816 30.3105L30.4988 27.5977H32.5379L29.9598 31.7988L32.5379 36ZM33.0297 29.0156L34.2895 27.8262L37.8227 31.5L34.2074 34.8984L33.0414 33.5977L35.432 31.4297L33.0297 29.0156Z" fill="black"/>
</svg>
