<svg width="42" height="42" viewBox="0 0 42 42" fill="none" xmlns="http://www.w3.org/2000/svg">
<g clip-path="url(#clip0_158_123)">
<path fill-rule="evenodd" clip-rule="evenodd" d="M7.55205 6.5625C6.88959 3.15 9.53943 0 12.9842 0C16.0315 0 18.5489 2.49375 18.5489 5.5125V12.3375C19.3438 12.3375 20.1388 12.2063 20.9338 12.2063C21.7287 12.2063 22.3912 12.2062 23.1861 12.3375V5.5125C23.1861 2.49375 25.7035 0 28.7508 0C32.1956 0 34.8454 3.15 34.3155 6.5625L32.858 14.5688C38.0252 16.8 42 20.7375 42 25.5938V28.6125C42 32.6812 39.3502 36.0938 35.5079 38.325C31.6656 40.6875 26.6309 42 20.9338 42C15.2366 42 10.2019 40.6875 6.35962 38.325C2.64984 36.0938 0 32.6812 0 28.6125V25.5938C0 20.7375 3.84227 16.8 9.00946 14.5688L7.55205 6.5625ZM30.8707 15.6187L32.5931 6.16875C32.9905 3.80625 31.2681 1.575 28.7508 1.575C26.6309 1.575 24.9085 3.28125 24.9085 5.38125V14.0437C24.3785 13.9125 23.7161 13.9125 23.1861 13.9125C22.3912 13.9125 21.7287 13.7812 20.9338 13.7812C20.1388 13.7812 19.3438 13.7813 18.5489 13.9125C18.0189 13.9125 17.3565 14.0437 16.8265 14.0437V5.5125C16.8265 3.4125 15.1041 1.70625 12.9842 1.70625C10.5994 1.70625 8.74448 3.9375 9.27445 6.3L10.9968 15.75C5.43218 17.85 1.7224 21.525 1.7224 25.725V28.7437C1.7224 35.175 10.3344 40.425 20.9338 40.425C31.5331 40.425 40.1451 35.175 40.1451 28.7437V25.725C40.2776 21.3938 36.5678 17.7188 30.8707 15.6187Z" fill="#633001"/>
<path d="M40.2776 28.6125C40.2776 35.0437 31.6656 40.2938 21.0662 40.2938C10.4669 40.2938 1.85489 35.0437 1.85489 28.6125V25.5938H40.4101V28.6125H40.2776Z" fill="#FEDC90"/>
<path fill-rule="evenodd" clip-rule="evenodd" d="M9.27445 6.30005C8.74448 3.93755 10.5994 1.7063 12.9842 1.7063C15.1041 1.7063 16.8265 3.41255 16.8265 5.51255V14.175C18.1514 14.0438 19.4763 13.9125 20.9338 13.9125C22.2587 13.9125 23.5836 14.0438 24.9085 14.175V5.51255C24.9085 3.41255 26.6309 1.7063 28.7508 1.7063C31.1356 1.7063 32.9905 3.93755 32.5931 6.30005L30.8707 15.75C36.4353 17.85 40.2776 21.5251 40.2776 25.725C40.2776 32.1563 31.6656 37.4063 21.0662 37.4063C10.4669 37.4063 1.85489 32.1563 1.85489 25.725C1.85489 21.5251 5.56467 17.85 11.1293 15.75L9.27445 6.30005Z" fill="#D1884F"/>
<path d="M15.6341 24.8062C15.6341 26.5125 14.7066 27.9562 13.5142 27.9562C12.3218 27.9562 11.3943 26.5125 11.3943 24.8062C11.3943 23.1 12.3218 21.6562 13.5142 21.6562C14.7066 21.6562 15.6341 23.1 15.6341 24.8062Z" fill="#633001"/>
<path d="M30.3407 24.8062C30.3407 26.5125 29.4133 27.9562 28.2208 27.9562C27.0284 27.9562 26.101 26.5125 26.101 24.8062C26.101 23.1 27.0284 21.6562 28.2208 21.6562C29.4133 21.6562 30.3407 23.1 30.3407 24.8062Z" fill="#633001"/>
</g>
<defs>
<clipPath id="clip0_158_123">
<rect width="42" height="42" fill="white"/>
</clipPath>
</defs>
</svg>
