<svg width="270" height="150" viewBox="0 0 270 150" fill="none" xmlns="http://www.w3.org/2000/svg">
<path d="M118.264 1.07782C114 0.697709 107.818 1.28844 102.581 2.558C93.1835 4.8566 85.6922 8.90054 80.3422 14.581C77.2685 17.8332 75.6355 20.6091 73.9719 25.3917L73.6603 26.2577L70.4598 25.6993C55.5795 23.1028 40.9083 26.9855 32.544 35.7146C30.6513 37.696 29.5656 39.2617 28.1211 42.1775C27.4751 43.4561 26.9094 44.5346 26.8886 44.531C26.864 44.5481 25.7969 44.7472 24.5104 44.9722C17.8585 46.1232 10.7657 49.2949 6.98209 52.7871C5.14345 54.4783 3.24172 57.3143 1.85328 60.3897C1.5842 61.0277 1.14664 62.6851 0.829912 64.385C0.385717 66.769 0.33899 67.5957 0.462009 69.0084C0.847438 72.9285 2.03935 76.0902 4.41054 79.3722C7.97384 84.3176 13.3504 88.7447 18.6951 91.1542C23.4473 93.2891 27.5005 94.3388 33.9464 95.0996C36.4881 95.3933 38.6349 95.6181 38.7258 95.5911C38.9814 95.4859 39.3349 96.468 39.7538 98.5959C41.4542 107.09 45.419 113.797 52.3501 120.015C60.2761 127.113 70.6916 131.906 82.7662 134.012C91.2662 135.496 96.7758 135.408 107.404 133.645L111.79 132.912L114.557 134.872C119.519 138.414 122.826 140.36 127.186 142.298C130.653 143.845 135.812 145.751 139.034 146.656C142.398 147.607 153.121 149.478 156.18 149.648C166.674 150.216 175.477 149.269 184.144 146.629C194.996 143.321 203.8 137.644 209.804 130.066C211.634 127.731 213.158 125.193 214.688 121.821L216.057 118.849L216.631 118.992C219.098 119.573 228.22 121.057 229.938 121.165C240.5 121.83 250.491 119.228 258.184 113.871C270.35 105.356 272.843 92.0921 264.518 80.1086C259.801 73.2924 252.119 67.6496 242.997 64.3241C241.046 63.6199 227.604 61.253 225.56 61.2816C224.66 61.2744 224.075 61.1936 223.848 61.0257C223.664 60.8651 223.055 59.7529 222.491 58.52C218.909 50.6817 211.729 43.8423 202.107 39.1668C197.035 36.6764 193.728 35.6499 187.14 34.5004C180.718 33.3799 177.532 33.2091 171.408 33.5961L168.193 33.8057L167.742 33.2346C167.522 32.918 166.762 31.3514 166.073 29.7541C165.404 28.1606 164.309 25.9788 163.655 24.8801C159.343 17.6207 151.108 10.6829 141.791 6.4458C137.518 4.50162 136.498 4.21665 128.197 2.70392C123.986 1.92632 119.506 1.20885 118.264 1.07782Z" fill="white"/>
</svg>
