<svg width="23" height="32" viewBox="0 0 23 32" fill="none" xmlns="http://www.w3.org/2000/svg">
<mask id="mask0_306_18" style="mask-type:alpha" maskUnits="userSpaceOnUse" x="0" y="0" width="23" height="32">
<path d="M0 6C0 2.68629 2.68629 0 6 0H14.375L23 8.72727V26C23 29.3137 20.3137 32 17 32H6C2.68629 32 0 29.3137 0 26V6Z" fill="black"/>
</mask>
<g mask="url(#mask0_306_18)">
<path d="M0 6C0 2.68629 2.68629 0 6 0H17C20.3137 0 23 2.68629 23 6V26C23 29.3137 20.3137 32 17 32H6C2.68629 32 0 29.3137 0 26V6Z" fill="#6B3FB9"/>
<path fill-rule="evenodd" clip-rule="evenodd" d="M6 31.625C2.68629 31.625 0 28.9387 0 25.625V25.2656C0 28.5793 2.68629 31.2656 6 31.2656H17C20.3137 31.2656 23 28.5793 23 25.2656V25.625C23 28.9387 20.3137 31.625 17 31.625H6Z" fill="#6439B5"/>
<path fill-rule="evenodd" clip-rule="evenodd" d="M6 0C2.68629 0 0 2.68629 0 6V6.35938C0 3.04567 2.68629 0.359375 6 0.359375H17C20.3137 0.359375 23 3.04567 23 6.35938V6C23 2.68629 20.3137 0 17 0H6Z" fill="#815BC3"/>
<path d="M23 16L16.5607 9.56066C15.6157 8.61571 16.285 7 17.6213 7H23V16Z" fill="url(#paint0_linear_306_18)"/>
<path d="M14 0L23 9H20C16.6863 9 14 6.31371 14 3V0Z" fill="#B7A2DD"/>
<path fill-rule="evenodd" clip-rule="evenodd" d="M6.82812 17.6094C7.42356 17.6094 7.90625 17.1267 7.90625 16.5312C7.90625 15.9358 7.42356 15.4531 6.82812 15.4531C6.23269 15.4531 5.75 15.9358 5.75 16.5312C5.75 17.1267 6.23269 17.6094 6.82812 17.6094ZM17.6094 15.8125H9.70312V17.25H17.6094V15.8125ZM17.6094 19.4062H9.70312V20.8438H17.6094V19.4062ZM9.70312 23H17.6094V24.4375H9.70312V23ZM7.90625 20.125C7.90625 20.7204 7.42356 21.2031 6.82812 21.2031C6.23269 21.2031 5.75 20.7204 5.75 20.125C5.75 19.5296 6.23269 19.0469 6.82812 19.0469C7.42356 19.0469 7.90625 19.5296 7.90625 20.125ZM6.82812 24.7969C7.42356 24.7969 7.90625 24.3142 7.90625 23.7188C7.90625 23.1233 7.42356 22.6406 6.82812 22.6406C6.23269 22.6406 5.75 23.1233 5.75 23.7188C5.75 24.3142 6.23269 24.7969 6.82812 24.7969Z" fill="white"/>
</g>
<defs>
<linearGradient id="paint0_linear_306_18" x1="18.5" y1="16" x2="18.5" y2="6.8125" gradientUnits="userSpaceOnUse">
<stop stop-color="#6B3FB9"/>
<stop offset="1" stop-color="#5B3DA3"/>
</linearGradient>
</defs>
</svg>
