<svg width="174" height="44" viewBox="0 0 174 44" fill="none" xmlns="http://www.w3.org/2000/svg">
<path d="M106 12.5123C103.201 12.5123 101.002 13.1184 98.8015 14.3283C98.8015 7.86988 98.8015 2.01759 99.0024 0L85.6017 2.42087V3.63189L87.0015 3.83354C88.7997 4.23682 89.4026 5.24503 89.7987 7.66824C90.2018 12.5123 89.9997 38.347 89.7987 42.5862C93.3987 43.3939 97.1996 44 101 44C111.6 44 118 37.3388 118 26.8429C118 18.5686 112.8 12.5123 106 12.5123ZM101.4 41.7784C100.6 41.7784 99.5984 41.7784 99.0001 41.578C98.7992 38.7526 98.6005 26.8429 98.7992 16.3482C99.9991 15.9437 100.798 15.7421 101.8 15.7421C106.202 15.7421 108.602 20.9895 108.602 27.4467C108.601 35.5229 105.601 41.7784 101.4 41.7784ZM35.2002 0.80657H0V2.62252L2.00035 2.82416C4.59896 3.22744 5.60029 4.84175 5.99875 8.67645C6.60047 15.9426 6.39951 29.0633 5.99875 35.3177C5.59914 39.1536 4.60012 40.9707 2.00035 41.17L0 41.5756V43.1899H22.5998V41.5756L20.1999 41.17C17.6001 40.9695 16.5999 39.1536 16.2003 35.3177C15.9994 32.6929 15.7996 28.4537 15.7996 23.2075L20.5995 23.4092C23.6 23.4092 24.9986 25.8312 25.5992 29.2615H27.3997V14.9355H25.5992C24.9975 18.3669 23.6 20.7878 20.5995 20.7878L15.8007 20.9906C15.8007 14.1278 16.0005 7.6694 16.2015 3.8347H23.2004C28.602 3.8347 31.4016 7.26495 33.4008 13.3212L35.4012 12.7151L35.2002 0.80657Z" fill="white"/>
<path d="M46.5994 12.1048C56.5998 12.1048 61.5994 18.9683 61.5994 28.0512C61.5994 36.7309 55.9992 44 45.9988 44C35.9996 44 31 37.1353 31 28.0512C31 19.3716 36.599 12.1048 46.5994 12.1048ZM45.9988 14.1238C41.5986 14.1238 40.3987 20.1794 40.3987 28.0512C40.3987 35.7214 42.399 41.9787 46.3996 41.9787C50.9961 41.9787 52.1984 35.923 52.1984 28.0512C52.1984 20.3811 50.2004 14.1238 45.9988 14.1238ZM120.596 28.2541C120.596 19.9778 125.795 12.1048 135.995 12.1048C144.393 12.1048 148.394 18.3633 148.394 26.6384H129.795C129.594 34.1069 133.194 39.5576 140.394 39.5576C143.595 39.5576 145.194 38.7521 147.196 37.3382L147.994 38.3465C145.993 41.1721 141.594 44 135.995 44C126.995 43.9988 120.596 37.5398 120.596 28.2541ZM129.795 24.419L139.194 24.2162C139.194 20.1794 138.594 14.1238 135.195 14.1238C131.796 14.1238 129.993 19.775 129.795 24.419ZM172.197 13.7204C169.797 12.7098 166.598 12.1048 162.998 12.1048C155.6 12.1048 150.998 16.5449 150.998 21.7939C150.998 27.0429 154.394 29.2624 159.2 30.878C164.198 32.693 165.599 34.1069 165.599 36.5292C165.599 38.9515 163.799 41.1709 160.598 41.1709C156.8 41.1709 153.998 38.9515 151.799 32.8946L150.398 33.3003L150.599 42.1815C152.999 43.1899 157.398 43.9988 161.199 43.9988C168.999 43.9988 174 39.9598 174 33.7036C174 29.464 171.799 27.0429 166.599 25.0228C160.998 22.8034 159 21.3906 159 18.7655C159 16.1415 160.803 14.3243 163.203 14.3243C166.8 14.3243 169.2 16.5449 171.003 21.9956L172.402 21.5922L172.197 13.7204ZM87.5976 12.9126C84.1987 10.896 78.1978 11.9032 74.9987 19.1711L75.1973 12.106L61.7992 14.7299V15.9411L63.1989 16.1427C65.0006 16.3455 65.7986 17.3538 65.9996 19.9789C66.3992 24.8235 66.1994 33.3026 65.9996 37.541C65.7986 39.9609 65.0006 41.1721 63.1989 41.3749L61.7992 41.5777V43.1922H80.3979V41.5777L77.998 41.3749C75.9988 41.1721 75.3983 39.9609 75.1973 37.541C74.7977 33.7048 74.7977 26.0346 74.9987 21.1901C75.9977 19.7761 80.3979 18.5662 84.3973 21.1901L87.5976 12.9126Z" fill="white"/>
</svg>
