<svg width="246" height="42" viewBox="0 0 246 42" fill="none" xmlns="http://www.w3.org/2000/svg">
<g id="full-coinmarketcap-logo 1" clip-path="url(#clip0_4_120)">
<g id="Layer_x0020_1">
<g id="_1626880615648">
<path id="Vector" d="M41.7019 21V20.961V20.922C41.6626 9.41344 32.285 0.0194702 20.851 0.0194702C9.35784 0.0194702 0 9.41344 0 21C0 32.5475 9.35784 41.9805 20.851 41.9805C26.1547 41.9805 31.1436 39.9926 35.0206 36.3578C35.7979 35.6269 35.8471 34.438 35.0894 33.6779C34.3908 32.9081 33.1903 32.8594 32.4228 33.5513C32.4228 33.5513 32.4228 33.5513 32.3834 33.5902C29.274 36.5137 25.0723 38.1898 20.7624 38.1898C15.7145 38.1898 11.1979 35.9972 8.0688 32.4988L16.9838 18.3591V24.9076C16.9838 28.0455 18.2138 29.0492 19.247 29.3415C20.2802 29.6339 21.8251 29.4097 23.5176 26.7884L28.3982 18.9438C28.5655 18.71 28.6934 18.4468 28.8607 18.2909V22.2668C28.8607 25.1805 30.0612 27.5582 32.1079 28.6886C33.948 29.7508 36.2899 29.6144 38.2186 28.4547C40.5998 26.8956 41.8692 24.206 41.7019 21ZM36.2899 25.1025C35.5519 25.5605 34.686 25.6288 34.0267 25.2682C33.2002 24.7712 32.718 23.6798 32.718 22.1888V17.5893C32.718 15.3967 31.8521 13.8083 30.3761 13.3893C27.8669 12.6585 25.9776 15.7086 25.2691 16.8585L20.851 23.8844V15.2213C20.7919 13.2334 20.1523 12.064 18.9223 11.7035C18.0958 11.4696 16.8756 11.5768 15.6751 13.3601L5.78592 29.0394C4.45752 26.5545 3.77856 23.8065 3.77856 20.9902C3.77856 11.5281 11.4636 3.82968 20.851 3.82968C30.2482 3.82968 37.9234 11.5281 37.9234 20.9902V21.0292V21.0682C38.0021 22.9197 37.4314 24.3717 36.2899 25.1025Z" fill="white"/>
<path id="Vector_2" d="M70.6315 13.896C71.1334 14.1884 71.5663 14.8608 71.5663 15.4844C71.5663 16.4492 70.7398 17.2677 69.805 17.2677C69.5688 17.2677 69.3425 17.1995 69.1457 17.141C68.0436 16.3225 66.6463 15.7963 65.1703 15.7963C61.6968 15.7963 59.3057 18.6028 59.3057 22.0816C59.3057 25.5605 61.7558 28.3475 65.19 28.3475C66.9218 28.3475 68.4667 27.6557 69.6278 26.5642C69.923 26.3596 70.2871 26.2329 70.661 26.2329C71.5958 26.2329 72.3338 26.9638 72.3338 27.8895C72.3338 28.4937 71.9698 29.0199 71.5073 29.3123C69.8345 30.735 67.5713 31.6803 65.2294 31.6803C59.8961 31.6803 55.5566 27.3438 55.5566 21.9745C55.5566 16.6051 59.8961 12.2687 65.2294 12.2687C67.1974 12.2199 69.0866 12.8436 70.6315 13.896Z" fill="white"/>
<path id="Vector_3" d="M80.4026 17.9499C76.5946 17.9499 73.4359 20.9903 73.4359 24.7615C73.4359 28.5327 76.5946 31.6998 80.4026 31.6998C84.0041 31.6998 87.084 28.4937 87.084 24.7615C87.084 20.9903 84.0434 17.9499 80.4026 17.9499ZM80.3633 28.3476C78.6314 28.3476 77.1948 26.7982 77.1948 24.8102C77.1948 22.7346 78.6314 21.4775 80.3633 21.4775C81.9672 21.4775 83.3054 22.7736 83.3054 24.8102C83.3054 26.8469 81.9475 28.3476 80.3633 28.3476Z" fill="white"/>
<path id="Vector_4" d="M89.3669 29.6046V20.0255C89.3669 18.9731 90.1934 18.1155 91.266 18.1155C92.2992 18.1155 93.1651 18.9731 93.1651 20.0255V29.6046C93.1651 30.6571 92.2992 31.5146 91.266 31.5146C90.2328 31.5146 89.3669 30.6278 89.3669 29.6046Z" fill="white"/>
<path id="Vector_5" d="M89.1012 14.5002C89.1012 13.2431 90.0754 12.2589 91.2758 12.2589C92.5058 12.2589 93.48 13.2821 93.48 14.5002C93.48 15.7183 92.5058 16.683 91.2758 16.683C90.036 16.6441 89.1012 15.6793 89.1012 14.5002Z" fill="white"/>
<path id="Vector_6" d="M100.358 24.4009V29.5949C100.358 30.6473 99.4922 31.5048 98.459 31.5048C97.4258 31.5048 96.5796 30.6473 96.5796 29.5949V19.5772C96.5796 18.7587 97.2389 18.1155 98.0556 18.1155C98.8625 18.1155 99.4922 18.8074 99.4922 19.5772C100.998 18.1545 102.366 17.9596 103.635 17.9596C107.404 17.9596 109.076 20.7661 109.076 23.9721V29.6241C109.076 30.6765 108.21 31.5341 107.177 31.5341C106.144 31.5341 105.278 30.6765 105.278 29.6241V24.4106C105.278 22.793 105.072 21.4092 102.7 21.4092C101.067 21.3995 100.358 22.7833 100.358 24.4009Z" fill="white"/>
<path id="Vector_7" d="M121.317 26.3986C120.855 26.3986 120.579 26.194 120.343 25.9016L115.945 21.2046V29.6046C115.945 30.6571 115.079 31.5146 114.046 31.5146C113.012 31.5146 112.146 30.6571 112.146 29.6046V12.9508C112.274 12.6585 112.55 12.4636 112.845 12.4636C113.18 12.4636 113.455 12.7559 113.672 12.9508L120.697 20.7466C120.904 20.9805 121.16 21.1072 121.308 21.1072C121.435 21.1072 121.711 20.9805 121.918 20.7466L128.924 12.9508C129.13 12.7462 129.386 12.4636 129.75 12.4636C130.085 12.4636 130.36 12.6682 130.449 12.9508V29.6046C130.449 30.6571 129.622 31.5146 128.55 31.5146C127.517 31.5146 126.651 30.6571 126.651 29.6046V21.2046L122.272 25.9016C121.977 26.194 121.681 26.3986 121.317 26.3986Z" fill="white"/>
<path id="Vector_8" d="M156.781 21.3995H156.377C154.006 21.5262 153.543 22.8612 153.543 24.4009V29.5949C153.543 30.6473 152.677 31.5048 151.644 31.5048C150.611 31.5048 149.745 30.6473 149.745 29.5949V19.5772C149.745 18.7587 150.404 18.1155 151.221 18.1155C152.028 18.1155 152.658 18.8074 152.658 19.5772C154.075 18.2812 155.216 17.9888 156.377 17.9596H156.741C157.647 17.9596 158.473 18.7294 158.473 19.7039C158.493 20.6004 157.686 21.3995 156.781 21.3995Z" fill="white"/>
<path id="Vector_9" d="M171.334 28.7081C171.501 29.0004 171.629 29.2733 171.629 29.6046C171.629 30.5693 170.724 31.4854 169.73 31.4854C169.071 31.4854 168.5 30.9884 168.057 30.4329L163.718 25.4436V29.5754C163.718 30.6278 162.852 31.4854 161.819 31.4854C160.786 31.4854 159.92 30.6278 159.92 29.5754V14.3345C159.92 13.2821 160.746 12.4246 161.819 12.4246C162.891 12.4246 163.718 13.2821 163.718 14.3345V23.8454L168.057 19.09C168.52 18.593 169.032 18.0668 169.691 18.0668C170.626 18.0668 171.492 18.9243 171.492 19.8891C171.492 20.1814 171.423 20.4932 171.255 20.7466L167.802 24.4789L171.334 28.7081Z" fill="white"/>
<path id="Vector_10" d="M194.124 31.6705H193.09C190.217 31.6705 188.544 30.4134 188.544 25.9893V21.3995H187.57C186.665 21.3995 185.897 20.581 185.897 19.6844C185.897 18.7197 186.724 17.9401 187.57 17.9401H188.544V14.4028C188.544 13.3503 189.371 12.4928 190.443 12.4928C191.457 12.5123 192.323 13.3698 192.323 14.4223V17.9596H193.887C194.793 17.9596 195.56 18.7295 195.56 19.7039C195.56 20.6005 194.734 21.419 193.887 21.419H192.323V25.2779C192.323 27.8311 192.451 28.3573 193.592 28.3573H194.124C195.029 28.3573 195.796 29.0882 195.796 30.0139C195.816 30.9104 195.019 31.6705 194.124 31.6705Z" fill="white"/>
<path id="Vector_11" d="M212.357 13.896C212.849 14.1884 213.292 14.8608 213.292 15.4844C213.292 16.4492 212.465 17.2677 211.53 17.2677C211.294 17.2677 211.068 17.1995 210.871 17.141C209.769 16.3225 208.372 15.7963 206.896 15.7963C203.422 15.7963 201.031 18.6028 201.031 22.0816C201.031 25.5605 203.481 28.3475 206.916 28.3475C208.647 28.3475 210.192 27.6557 211.353 26.5642C211.649 26.3596 212.013 26.2329 212.387 26.2329C213.321 26.2329 214.059 26.9638 214.059 27.8895C214.059 28.4937 213.695 29.0199 213.233 29.3123C211.56 30.735 209.297 31.6803 206.955 31.6803C201.622 31.6803 197.282 27.3438 197.282 21.9745C197.282 16.6051 201.622 12.2687 206.955 12.2687C208.923 12.2199 210.852 12.8436 212.357 13.896Z" fill="white"/>
<path id="Vector_12" d="M144.924 18.0668C144.097 18.0668 143.487 18.7197 143.487 19.5285L143.418 19.9865C141.765 18.0766 139.649 17.9109 139.02 17.9109C135.32 17.9109 132.673 20.9902 132.673 24.7225C132.673 28.4937 135.3 31.6608 138.813 31.6608C140.289 31.6608 142.621 31.0079 143.359 29.5851L143.428 30.0431C143.428 30.813 144.038 31.5049 144.904 31.4659C145.73 31.4659 146.38 30.813 146.38 30.0042V19.5285C146.4 18.7587 145.76 18.0668 144.924 18.0668ZM139.423 28.3475C137.75 28.3475 136.422 26.7591 136.422 24.8102C136.422 22.8223 137.78 21.4385 139.423 21.4385C141.056 21.4385 142.552 22.7833 142.552 24.8102C142.552 26.8371 141.115 28.3475 139.423 28.3475Z" fill="white"/>
<path id="Vector_13" d="M185.1 24.4886C185.031 20.2984 182.266 17.9499 178.626 17.9499C174.119 17.9499 172.19 21.1949 172.19 24.9272C172.19 29.6826 175.359 31.6998 179.167 31.6998C180.603 31.6998 182.109 31.4951 183.27 30.6473C183.732 30.355 184.097 29.8775 184.097 29.3026C184.097 28.445 183.398 27.7531 182.591 27.7531C182.227 27.7531 181.853 27.8798 181.617 28.0455C180.84 28.406 179.856 28.5425 179.147 28.5425C178.212 28.5425 176.038 28.1819 176.038 25.9406H183.673C184.441 25.9406 185.1 25.2487 185.1 24.4886ZM175.998 23.5531C175.998 21.9647 177.671 21.4385 178.704 21.4385C179.698 21.4385 181.41 21.9647 181.459 23.5531H175.998Z" fill="white"/>
<path id="Vector_14" d="M227.412 18.0668C226.586 18.0668 225.976 18.7197 225.976 19.5285L225.907 19.9865C224.254 18.0766 222.138 17.9109 221.508 17.9109C217.808 17.9109 215.161 20.9902 215.161 24.7225C215.161 28.4937 217.789 31.6608 221.302 31.6608C222.778 31.6608 225.11 31.0079 225.848 29.5851L225.917 30.0431C225.917 30.813 226.527 31.5049 227.393 31.4659C228.219 31.4659 228.869 30.813 228.869 30.0042V19.5285C228.878 18.7587 228.239 18.0668 227.412 18.0668ZM221.912 28.3475C220.278 28.3475 218.91 26.7591 218.91 24.8102C218.91 22.8223 220.219 21.4385 221.912 21.4385C223.545 21.4385 225.021 22.7833 225.021 24.8102C225.021 26.8371 223.604 28.3475 221.912 28.3475Z" fill="white"/>
<path id="Vector_15" d="M239.634 17.9596C238.325 17.9596 236.603 18.3202 235.206 19.7429C235.206 18.8171 234.595 18.1253 233.769 18.1253C232.942 18.1253 232.293 18.7782 232.293 19.587V35.3443C232.293 36.3967 233.159 37.2543 234.192 37.2543C235.225 37.2543 236.091 36.3967 236.091 35.3443V30.5888C237.124 31.3489 238.758 31.6802 239.86 31.7192C243.432 31.7192 246 28.5132 246 24.7809C245.98 21 243.274 17.9596 239.634 17.9596ZM239.171 28.3378C237.498 28.3378 236.062 26.8468 236.062 24.8004C236.062 22.754 237.498 21.4287 239.171 21.4287C240.805 21.4287 242.172 22.7735 242.172 24.8004C242.172 26.7591 240.864 28.3378 239.171 28.3378Z" fill="white"/>
</g>
</g>
</g>
<defs>
<clipPath id="clip0_4_120">
<rect width="246" height="42" fill="white"/>
</clipPath>
</defs>
</svg>
