<svg width="194" height="50" viewBox="0 0 194 50" fill="none" xmlns="http://www.w3.org/2000/svg">
<path d="M69.8788 39.0819C68.175 39.0819 66.6316 38.8105 65.2488 38.2677C63.8907 37.7002 62.7177 36.8613 61.73 35.7511C60.7669 34.6408 60.0261 33.2715 59.5076 31.6431C58.989 29.99 58.7297 28.0779 58.7297 25.9067C58.7297 23.7355 58.989 21.8111 59.5076 20.1334C60.0261 18.431 60.7669 17.0123 61.73 15.8773C62.7177 14.7177 63.8907 13.8419 65.2488 13.2497C66.6316 12.6576 68.175 12.3615 69.8788 12.3615C72.2 12.3615 74.1261 12.855 75.6571 13.8419C77.1881 14.8288 78.4104 16.3215 79.324 18.3199L75.1385 20.5405C74.7681 19.3808 74.1631 18.4556 73.3235 17.7648C72.484 17.0493 71.3357 16.6915 69.8788 16.6915C68.0515 16.6915 66.5946 17.3084 65.5081 18.542C64.4463 19.7756 63.9153 21.5027 63.9153 23.7232V27.7942C63.9153 30.0394 64.4463 31.7665 65.5081 32.9754C66.5946 34.1597 68.0515 34.7518 69.8788 34.7518C71.3357 34.7518 72.521 34.3571 73.4347 33.5676C74.373 32.778 75.0521 31.8035 75.4719 30.6439L79.4352 32.9754C78.4968 34.8999 77.2498 36.4049 75.6941 37.4905C74.1384 38.5514 72.2 39.0819 69.8788 39.0819Z" fill="white"/>
<path d="M90.2508 39.0819C88.868 39.0819 87.621 38.8475 86.5098 38.3787C85.4233 37.9099 84.4849 37.2314 83.6947 36.3432C82.9292 35.455 82.3366 34.3941 81.9168 33.1605C81.497 31.9022 81.2871 30.4958 81.2871 28.9415C81.2871 27.3871 81.497 25.9931 81.9168 24.7595C82.3366 23.5258 82.9292 22.4773 83.6947 21.6137C84.4849 20.7255 85.4233 20.047 86.5098 19.5782C87.621 19.1095 88.868 18.8751 90.2508 18.8751C91.6336 18.8751 92.8807 19.1095 93.9919 19.5782C95.1031 20.047 96.0414 20.7255 96.8069 21.6137C97.5971 22.4773 98.2021 23.5258 98.6219 24.7595C99.0417 25.9931 99.2516 27.3871 99.2516 28.9415C99.2516 30.4958 99.0417 31.9022 98.6219 33.1605C98.2021 34.3941 97.5971 35.455 96.8069 36.3432C96.0414 37.2314 95.1031 37.9099 93.9919 38.3787C92.8807 38.8475 91.6336 39.0819 90.2508 39.0819ZM90.2508 35.27C91.5102 35.27 92.4979 34.8875 93.214 34.1227C93.9301 33.3578 94.2882 32.2352 94.2882 30.7549V27.165C94.2882 25.7094 93.9301 24.5991 93.214 23.8342C92.4979 23.0694 91.5102 22.687 90.2508 22.687C89.0161 22.687 88.0408 23.0694 87.3246 23.8342C86.6085 24.5991 86.2505 25.7094 86.2505 27.165V30.7549C86.2505 32.2352 86.6085 33.3578 87.3246 34.1227C88.0408 34.8875 89.0161 35.27 90.2508 35.27Z" fill="white"/>
<path d="M105.067 16.5065C104.079 16.5065 103.363 16.2844 102.919 15.8403C102.499 15.3962 102.289 14.8287 102.289 14.1379V13.3977C102.289 12.7069 102.499 12.1394 102.919 11.6953C103.363 11.2512 104.079 11.0292 105.067 11.0292C106.03 11.0292 106.734 11.2512 107.178 11.6953C107.623 12.1394 107.845 12.7069 107.845 13.3977V14.1379C107.845 14.8287 107.623 15.3962 107.178 15.8403C106.734 16.2844 106.03 16.5065 105.067 16.5065ZM102.696 19.3191H107.437V38.6377H102.696V19.3191Z" fill="white"/>
<path d="M112.179 38.6378V19.3192H116.92V22.5389H117.105C117.5 21.5027 118.117 20.6391 118.957 19.9483C119.821 19.2328 121.006 18.8751 122.513 18.8751C124.513 18.8751 126.044 19.5289 127.106 20.8365C128.168 22.1442 128.698 24.0069 128.698 26.4249V38.6378H123.957V26.906C123.957 25.5243 123.71 24.4881 123.216 23.7972C122.723 23.1064 121.908 22.761 120.772 22.761C120.278 22.761 119.796 22.835 119.327 22.983C118.883 23.1064 118.475 23.3038 118.105 23.5752C117.759 23.8219 117.475 24.1426 117.253 24.5374C117.031 24.9075 116.92 25.3516 116.92 25.8697V38.6378H112.179Z" fill="white"/>
<path d="M139.551 39.0819C137.699 39.0819 136.143 38.7735 134.884 38.1566C133.625 37.5152 132.514 36.6393 131.55 35.529L134.44 32.7163C135.156 33.5305 135.934 34.172 136.773 34.6408C137.637 35.1096 138.625 35.344 139.736 35.344C140.872 35.344 141.687 35.1466 142.181 34.7518C142.7 34.3571 142.959 33.8143 142.959 33.1234C142.959 32.556 142.774 32.1119 142.403 31.7911C142.058 31.4457 141.453 31.2113 140.588 31.088L138.662 30.8289C136.563 30.5575 134.958 29.9654 133.847 29.0525C132.76 28.1149 132.217 26.7579 132.217 24.9815C132.217 24.044 132.39 23.2051 132.736 22.4649C133.081 21.7001 133.575 21.0586 134.217 20.5405C134.859 19.9977 135.625 19.5906 136.514 19.3192C137.428 19.0231 138.44 18.8751 139.551 18.8751C140.489 18.8751 141.317 18.9491 142.033 19.0971C142.774 19.2205 143.44 19.4179 144.033 19.6893C144.626 19.936 145.169 20.2567 145.663 20.6515C146.157 21.0216 146.638 21.441 147.107 21.9098L144.329 24.6854C143.761 24.0933 143.082 23.5999 142.292 23.2051C141.502 22.8103 140.638 22.6129 139.699 22.6129C138.662 22.6129 137.909 22.798 137.44 23.1681C136.995 23.5382 136.773 24.0193 136.773 24.6114C136.773 25.2529 136.958 25.7464 137.329 26.0918C137.724 26.4125 138.378 26.6469 139.292 26.7949L141.255 27.054C145.428 27.6461 147.515 29.5459 147.515 32.7534C147.515 33.6909 147.317 34.5545 146.922 35.344C146.552 36.1088 146.021 36.775 145.329 37.3424C144.638 37.8852 143.798 38.317 142.811 38.6378C141.848 38.9338 140.761 39.0819 139.551 39.0819Z" fill="white"/>
<path d="M162.516 35.418H162.331C162.158 35.9114 161.923 36.3802 161.627 36.8243C161.355 37.2437 160.997 37.6262 160.553 37.9716C160.133 38.317 159.614 38.5884 158.997 38.7858C158.404 38.9832 157.713 39.0818 156.923 39.0818C154.923 39.0818 153.392 38.428 152.33 37.1204C151.268 35.8127 150.737 33.95 150.737 31.5321V19.3192H155.478V31.0509C155.478 32.3833 155.738 33.4072 156.256 34.1227C156.775 34.8135 157.602 35.1589 158.738 35.1589C159.207 35.1589 159.664 35.0972 160.108 34.9739C160.578 34.8505 160.985 34.6655 161.331 34.4187C161.676 34.1473 161.96 33.8266 162.183 33.4565C162.405 33.0618 162.516 32.6053 162.516 32.0872V19.3192H167.257V38.6377H162.516V35.418Z" fill="white"/>
<path d="M176.739 38.6377C175.11 38.6377 173.912 38.2306 173.146 37.4164C172.381 36.6022 171.998 35.455 171.998 33.9746V11.2512H176.739V34.8628H179.295V38.6377H176.739Z" fill="white"/>
<path d="M187.999 38.6378C186.37 38.6378 185.123 38.2183 184.258 37.3795C183.419 36.5159 182.999 35.2946 182.999 33.7156V23.0941H180.147V19.3192H181.629C182.345 19.3192 182.826 19.1588 183.073 18.8381C183.345 18.4926 183.481 17.9869 183.481 17.3207V14.0269H187.74V19.3192H191.703V23.0941H187.74V34.8629H191.407V38.6378H187.999Z" fill="white"/>
<path d="M16.2996 0H50.0423V33.7142C50.0423 38.0334 48.3251 42.1758 45.2683 45.23C42.2115 48.2842 38.0656 50 33.7427 50H0V16.2858C0 11.9666 1.71728 7.8242 4.77405 4.77001C7.83082 1.71582 11.9767 0 16.2996 0Z" fill="url(#paint0_linear_4_176)"/>
<path d="M39.5365 19.6756L36.1909 21.2073L33.8422 22.2829L33.7375 22.33L30.5081 23.7874C30.5081 23.7748 30.5029 23.7623 30.4987 23.7497C30.3081 22.9558 29.9405 22.2151 29.4233 21.5829L29.1249 20.9311L32.3469 19.4559L34.7302 18.3647L38.1051 16.8194C38.2921 17.111 38.4667 17.4091 38.6286 17.7139L39.5103 19.6359L39.5365 19.6756Z" fill="white"/>
<path d="M40.082 28.507C39.834 29.5612 39.4742 30.5861 39.0087 31.5641L28.5447 29.7792L28.6432 29.2027C29.4065 28.5832 29.9858 27.767 30.3186 26.8424L40.082 28.507Z" fill="white"/>
<path d="M21.2211 30.1695L16.9939 33.1607L13.9719 35.2992C13.2503 34.5117 12.6133 33.6508 12.0713 32.7307L15.0776 30.6026L17.1897 29.1076L19.374 27.5623L21.2211 30.1695Z" fill="white"/>
<path d="M21.6243 17.0318L20.3174 19.9466L18.4033 19.0897L15.9792 18.0048L12.5666 16.4762C13.1886 15.5545 13.9098 14.7037 14.7174 13.9391L18.441 15.6058L21.2881 16.8822L21.6243 17.0318Z" fill="white"/>
<path d="M36.46 27.8887C35.9489 29.8717 34.9212 31.684 33.4813 33.1412C32.0414 34.5984 30.2409 35.6485 28.2629 36.1845C26.2849 36.7205 24.2001 36.7234 22.2206 36.1928C20.2412 35.6622 18.4377 34.6171 16.9939 33.1638C16.2405 32.4035 15.5957 31.5431 15.0776 30.6068L12.0713 32.7349C13.6142 35.362 15.9095 37.4671 18.661 38.7786C21.4126 40.0901 24.4943 40.5478 27.5088 40.0928C30.5232 39.6378 33.3321 38.291 35.5731 36.2259C37.8142 34.1608 39.3847 31.4723 40.082 28.507L36.46 27.8887Z" fill="white"/>
<path d="M18.441 15.6058C19.9078 14.5495 21.6013 13.8503 23.3866 13.5638C25.1718 13.2773 26.9993 13.4115 28.7234 13.9557C30.4475 14.4999 32.0205 15.439 33.317 16.6982C34.6135 17.9574 35.5976 19.5019 36.1909 21.2084L39.5365 19.6767C39.5302 19.661 39.5249 19.6453 39.5187 19.6307L38.637 17.7087C38.4715 17.4046 38.297 17.1064 38.1134 16.8142C36.7521 14.6788 34.8804 12.9155 32.667 11.683C30.4537 10.4505 27.9682 9.78761 25.4345 9.75408C22.9008 9.72056 20.3986 10.3174 18.1533 11.4909C15.9081 12.6644 13.9903 14.3777 12.5729 16.4763L15.9855 18.0048C16.6803 17.0878 17.5079 16.2793 18.441 15.6058Z" fill="white"/>
<path d="M13.8431 22.7851C13.971 22.1278 14.1553 21.4827 14.3939 20.8569L11.043 19.3566C9.72418 22.6763 9.60934 26.3524 10.7184 29.7479L13.8975 27.4984C13.5557 25.9477 13.5371 24.3433 13.8431 22.7851Z" fill="white"/>
<path d="M36.0234 20.7606L33.7165 21.9188L33.616 21.9701L30.4516 23.5572" fill="white"/>
<path d="M19.2211 27.6438L17.1782 29.0897C16.661 28.0781 16.3412 26.9774 16.2357 25.8464L17.375 25.0408L19.2211 27.6438Z" fill="white"/>
<path d="M20.7572 20.2051L19.4504 23.1199L16.7426 21.9042C17.1108 20.8891 17.66 19.9491 18.3635 19.1295L20.7572 20.2051Z" fill="white"/>
<path d="M33.9176 27.4555C33.4242 29.1999 32.4164 30.7554 31.0254 31.9192C29.6344 33.0829 27.9248 33.8011 26.1194 33.9799C24.3141 34.1588 22.4966 33.7901 20.904 32.922C19.3113 32.0538 18.0174 30.7264 17.1907 29.1128C17.1859 29.106 17.182 29.0986 17.1792 29.0908C16.3696 27.5 16.0502 25.7051 16.2614 23.933C16.4725 22.1609 17.2048 20.4911 18.3656 19.1347L18.4044 19.0908C19.4569 17.8789 20.8137 16.9691 22.3351 16.4553C23.8566 15.9415 25.4875 15.8422 27.0601 16.1676C28.6327 16.493 30.0901 17.2313 31.2822 18.3065C32.4743 19.3818 33.3579 20.7551 33.8422 22.285L33.7375 22.331L30.5081 23.7874C30.5081 23.7748 30.5029 23.7623 30.4987 23.7497C30.1976 22.4843 29.4508 21.3693 28.3948 20.6087C27.3388 19.848 26.0441 19.4924 24.7473 19.607C23.4505 19.7215 22.2383 20.2985 21.3322 21.2325C20.4262 22.1664 19.8867 23.395 19.8125 24.6936C19.7383 25.9922 20.1343 27.2741 20.9281 28.3051C21.7219 29.336 22.8605 30.0471 24.1358 30.3084C25.4111 30.5696 26.7379 30.3636 27.8737 29.728C29.0095 29.0924 29.8785 28.0696 30.3217 26.8466L33.9176 27.4555Z" fill="white"/>
<defs>
<linearGradient id="paint0_linear_4_176" x1="0.800006" y1="1.24712" x2="73.988" y2="73.141" gradientUnits="userSpaceOnUse">
<stop stop-color="#3B916F"/>
<stop offset="1" stop-color="#096AA5"/>
</linearGradient>
</defs>
</svg>
