<svg width="206" height="53" viewBox="0 0 206 53" fill="none" xmlns="http://www.w3.org/2000/svg">
<path d="M32.7826 38.7537L23.3913 42.8886V42.4927C21.5217 42.9765 19.6087 43.2405 17.6522 43.3285C8.82609 43.2405 1.82609 38.5777 1.73913 33.0352V30.9677C4.6087 35.2346 10.5652 38.0938 17.6522 37.9619C20 38.0499 22.3043 37.7419 24.5652 37.1261L25.3913 35.0587C22.8696 35.8504 20.2609 36.2903 17.6522 36.2903C8.82609 36.3343 1.82609 31.6716 1.73913 25.9971V24.3255C4.6087 28.2845 10.5217 31.0997 17.6522 30.9677C20.7391 31.1437 23.8261 30.5718 26.6087 29.2962L27 27.2287C24.087 28.6804 20.8696 29.4282 17.6087 29.2962C8.78261 29.4282 1.78261 24.7654 1.69565 19.0029V17.3314C4.56522 21.3783 10.5217 24.1935 17.6087 24.3255C21.4348 24.1935 25.2174 23.2258 28.6522 21.4663L29.0435 19.0029C26.2174 21.1144 22.0435 22.522 17.6522 22.6979C8.78261 22.478 1.78261 17.8153 1.69565 11.9648C1.78261 6.42229 8.78261 1.71554 17.6087 1.67155C22.8696 1.75953 27.7391 3.65102 30.6522 6.64223L30.9565 7.08211H33L32.6957 6.59824C29.7826 2.6393 24 0 17.5652 0C7.82609 0 0 5.45454 0 11.9648V33.4311C0.347826 39.8094 7.95652 45 17.5652 45C24 44.956 29.6957 42.4047 32.7826 38.7537Z" fill="white"/>
<path d="M29.4302 53L32.7083 39.0396L23.3053 43.1583L29.042 18.9227H18L20.8468 7H56L53.1532 18.9227H41.723L39.2645 25.5127L51.9455 20.18L29.4302 53ZM35.1669 36.1348L33.5278 44.3289L47.0284 23.7785L35.9864 28.721L40.9035 17.2319H51.9455L53.9728 8.60415H22.0976L20.0704 17.2319H31.1124L25.807 40.2102L35.1669 36.1348Z" fill="white"/>
<path d="M78.9524 14.6499C78.9524 15.2761 78.762 15.8576 78.5241 16.3944C78.2385 16.9311 77.8578 17.4232 77.3818 17.8257C76.2872 18.6309 74.9546 19.0782 73.5744 18.9887C72.8129 19.0334 72.0514 18.8993 71.3375 18.6309C70.6236 18.3625 70.0049 17.9152 69.4814 17.3784C68.4819 16.3049 68.006 14.7841 68.006 12.8607V12.1003C67.9584 10.982 68.1964 9.90848 68.6723 8.87968C69.1006 7.98508 69.7669 7.26939 70.6236 6.73263C71.6707 6.19587 72.8605 5.92749 74.0503 6.01695C75.2401 6.10641 76.3824 6.50898 77.3342 7.17993C78.3337 8.02981 78.9048 9.23753 79 10.49H76.2396C76.2396 9.81902 76.0016 9.1928 75.5257 8.70077C75.0022 8.29819 74.2883 8.11927 73.622 8.164C73.2412 8.11927 72.8129 8.20873 72.4321 8.38766C72.0514 8.56658 71.7658 8.79022 71.5279 9.10333C71.0519 9.72956 70.814 10.7136 70.814 12.0108V12.9501C70.814 14.3368 71.0519 15.3208 71.4803 15.9471C71.7182 16.2602 72.0038 16.5286 72.3845 16.6627C72.7653 16.8417 73.146 16.8864 73.5744 16.8864C74.2883 16.9311 74.9546 16.7522 75.4781 16.3496C75.954 15.9023 76.192 15.2761 76.192 14.6499H78.9524Z" fill="white"/>
<path d="M90.9497 12.7904C90.9951 13.9072 90.768 15.0241 90.2685 16.0515C89.8597 16.945 89.1785 17.7045 88.3611 18.2406C87.4982 18.732 86.4991 19 85.5 19C84.5009 19 83.5018 18.732 82.6389 18.2406C81.7761 17.7045 81.0949 16.9897 80.6861 16.0962C80.232 15.0687 79.9595 13.9966 80.0049 12.8797V12.2543C79.9595 11.1375 80.232 10.0206 80.6861 8.94845C81.0949 8.05498 81.7761 7.29553 82.6389 6.75945C83.5018 6.26804 84.5009 6 85.5 6C86.4991 6 87.4982 6.26804 88.3611 6.75945C89.2239 7.29553 89.8597 8.05498 90.3139 8.94845C90.768 9.97594 91.0405 11.0928 90.9951 12.2096V12.7904H90.9497ZM88.2702 12.2096C88.2702 10.8694 88.0432 9.8866 87.5436 9.17182C87.3166 8.8591 86.9987 8.59106 86.6353 8.41237C86.272 8.23368 85.8633 8.14433 85.5 8.14433C85.0913 8.14433 84.6825 8.23368 84.3646 8.41237C84.0013 8.59106 83.6834 8.8591 83.4564 9.17182C82.9568 9.84192 82.7298 10.8694 82.7298 12.165V12.7904C82.6843 13.8179 82.9114 14.89 83.4564 15.7835C83.6834 16.0962 84.0013 16.3643 84.3646 16.543C84.728 16.7216 85.1367 16.811 85.5454 16.811C85.9541 16.811 86.3629 16.7216 86.7262 16.543C87.0895 16.3643 87.4074 16.0962 87.6345 15.7835C88.0886 15.1134 88.3611 14.0859 88.3611 12.7904V12.2096H88.2702Z" fill="white"/>
<path d="M95 19H93V6H95V19Z" fill="white"/>
<path d="M107.952 19H105.178L99.7739 10.4558V19H97V6H99.7739L105.226 14.5442V6H108V19H107.952Z" fill="white"/>
<path d="M118.957 8.15901H115.174V19H112.696V8.15901H109V6H119V8.15901H118.957Z" fill="white"/>
<path d="M128.1 13.3498H122.795V16.841H129V19H120V6H128.953V8.15901H122.747V11.2368H128.053V13.3498H128.1Z" fill="white"/>
<path d="M132.549 16.841H138V19H130V6H132.549V16.841Z" fill="white"/>
<path d="M147.2 13.3498H142.484V16.841H148V19H140V6H147.958V8.15901H142.442V11.2368H147.158V13.3498H147.2Z" fill="white"/>
<path d="M158.957 17.2465C158.438 17.8735 157.789 18.3214 157.053 18.5453C156.188 18.8588 155.236 19.038 154.284 18.9932C153.289 19.038 152.337 18.7692 151.515 18.2766C150.693 17.7839 150.044 17.0673 149.654 16.1716C149.178 15.1863 148.962 14.0666 149.005 12.9469V12.0959C148.962 10.9762 149.178 9.85655 149.611 8.82644C150.001 7.93069 150.606 7.21409 151.385 6.72143C152.207 6.22876 153.159 5.96004 154.111 6.00483C155.582 6.00483 156.707 6.36313 157.529 7.07973C158.394 7.8859 158.913 9.00559 159 10.2148H156.534C156.491 9.58782 156.231 9.05038 155.798 8.6025C155.366 8.24421 154.803 8.06505 154.197 8.10984C153.808 8.10984 153.419 8.15463 153.072 8.33378C152.726 8.51293 152.423 8.78165 152.207 9.09516C151.774 9.76697 151.515 10.7523 151.515 12.0511V12.8573C151.515 14.2009 151.774 15.1863 152.25 15.8581C152.51 16.2164 152.813 16.4851 153.202 16.6642C153.592 16.8434 153.981 16.933 154.414 16.8882C155.366 16.8882 156.015 16.6642 156.447 16.2612V14.0666H154.154V12.1407H158.957V17.2465Z" fill="white"/>
<path d="M165.749 14.2226H163.648V19H161V6H165.795C167.301 6 168.489 6.32155 169.31 7.0106C169.721 7.37809 170.041 7.79152 170.269 8.29682C170.498 8.80212 170.589 9.35336 170.543 9.90459C170.589 10.6855 170.361 11.4664 169.95 12.1095C169.539 12.7527 168.9 13.212 168.215 13.5336L171 18.8622V19H168.123L165.749 14.2226ZM163.648 12.0177H165.795C166.342 12.0636 166.936 11.8799 167.347 11.5124C167.53 11.3286 167.667 11.0989 167.758 10.8693C167.849 10.6396 167.895 10.364 167.895 10.0883C167.895 9.81272 167.849 9.58304 167.804 9.30742C167.712 9.07774 167.575 8.84805 167.393 8.61837C167.164 8.43463 166.936 8.29682 166.662 8.20495C166.388 8.11308 166.114 8.06714 165.795 8.11308H163.648V12.0177Z" fill="white"/>
<path d="M179.596 16.3357H175.362L174.574 19H172L176.358 6H178.6L183 19H180.426L179.596 16.3357ZM176.026 14.1767H178.974L177.479 9.30742L176.026 14.1767Z" fill="white"/>
<path d="M186.683 14.4064V19H184V6H189.088C189.967 6 190.846 6.18374 191.678 6.55124C192.372 6.87279 192.974 7.42403 193.39 8.06714C193.806 8.75618 193.991 9.53711 193.991 10.318C194.037 10.8693 193.899 11.4664 193.667 11.9717C193.436 12.477 193.112 12.9364 192.65 13.3039C191.771 14.0389 190.568 14.4064 188.996 14.4064H186.683ZM186.683 12.2014H189.088C189.689 12.2473 190.244 12.0636 190.707 11.6961C190.892 11.5124 191.031 11.2827 191.17 11.053C191.262 10.8233 191.308 10.5477 191.308 10.2721C191.308 9.99647 191.262 9.72085 191.17 9.44523C191.077 9.16961 190.938 8.93993 190.753 8.71025C190.568 8.52651 190.291 8.34276 190.013 8.25089C189.736 8.15901 189.458 8.11308 189.181 8.11308H186.729V12.2014H186.683Z" fill="white"/>
<path d="M206 19H203.478V13.4417H198.522V19H196V6H198.522V11.2827H203.478V6H206V19Z" fill="white"/>
<path d="M76 31.8255H73V41H70.9583V31.8255H68V30H76V31.8255Z" fill="white"/>
<path d="M79.1645 34.1526C79.4408 33.8434 79.7632 33.5783 80.1316 33.4016C80.5 33.2249 80.9145 33.1365 81.329 33.1365C83.079 33.1365 83.9539 34.1084 84 36.0522V41H81.8355V36.0964C81.8816 35.743 81.7434 35.3896 81.5592 35.1245C81.4211 34.992 81.2829 34.9036 81.0987 34.8594C80.9145 34.8153 80.7303 34.7711 80.5461 34.8153C80.2697 34.8153 79.9934 34.8594 79.7632 34.992C79.5329 35.1245 79.3026 35.3012 79.1645 35.5221V41H77V30H79.1645V34.1526Z" fill="white"/>
<path d="M88.85 41C88.325 41 87.8437 40.9559 87.3625 40.7793C86.8812 40.6028 86.4438 40.3379 86.0938 39.9849C85.7437 39.6318 85.4375 39.1904 85.2625 38.7049C85.0875 38.2194 85 37.7339 85 37.2042V36.9836C85 36.2774 85.1313 35.5712 85.4375 34.9091C85.7 34.3353 86.1375 33.8498 86.7062 33.4967C87.275 33.1437 87.9312 32.9671 88.5875 33.0112C89.0687 32.9671 89.5062 33.0554 89.9437 33.2319C90.3812 33.4085 90.775 33.6733 91.0812 34.0264C91.6937 34.6884 92 35.6595 92 36.8511V37.6897H87.1437C87.1875 38.1752 87.4062 38.5725 87.7562 38.9256C88.1062 39.2345 88.5437 39.4111 89.025 39.3669C89.375 39.3669 89.725 39.3228 90.075 39.1463C90.3813 39.0138 90.6875 38.749 90.9062 38.4842L91.9125 39.6318C91.6062 40.0731 91.1687 40.4262 90.6875 40.6469C90.075 40.8676 89.4625 41 88.85 41ZM88.6312 34.6443C88.4562 34.6443 88.2813 34.6884 88.1063 34.7326C87.9313 34.8209 87.8 34.9091 87.6688 35.0415C87.4063 35.3946 87.2313 35.7919 87.1875 36.2332H90.0312V36.0567C90.0312 35.6595 89.9 35.3064 89.6812 34.9974C89.55 34.865 89.375 34.7767 89.2 34.6884C88.9813 34.6443 88.8062 34.6443 88.6312 34.6443Z" fill="white"/>
<path d="M98.1403 41V34.8479H97V33.3644H98.1403V32.7099C98.0965 32.3608 98.1842 31.9682 98.3158 31.6191C98.4474 31.27 98.6228 30.9646 98.886 30.7028C99.4561 30.2229 100.202 29.9611 100.947 30.0047C101.298 30.0047 101.649 30.0483 102 30.1356V31.7064C101.781 31.6627 101.605 31.6191 101.386 31.6627C100.596 31.6627 100.246 32.0118 100.246 32.7535V33.3644H101.781V34.8479H100.202V41H98.1403Z" fill="white"/>
<path d="M106.837 40.0457C106.561 40.3598 106.239 40.629 105.871 40.7637C105.503 40.9432 105.089 40.9881 104.675 40.9881C104.306 41.0329 103.938 40.9432 103.616 40.8534C103.294 40.7188 102.972 40.5393 102.696 40.27C102.19 39.6866 101.96 38.9237 102.006 38.1608V33H104.168V38.0711C104.168 38.8789 104.537 39.2827 105.319 39.2827C105.595 39.3276 105.917 39.2379 106.193 39.1481C106.469 39.0135 106.699 38.834 106.837 38.5647V33H109V40.8534H106.975L106.837 40.0457Z" fill="white"/>
<path d="M112.731 31V32.9457H113.885V34.4842H112.731V38.4208C112.731 38.6471 112.769 38.8733 112.885 39.0543C112.962 39.1448 113.038 39.19 113.154 39.2353C113.231 39.2805 113.346 39.2805 113.462 39.2805C113.654 39.2805 113.808 39.2805 114 39.2353V40.819C113.654 40.9547 113.269 41 112.923 41C111.654 41 111 40.2308 111 38.7376V34.4842H110V32.9457H111V31H112.731Z" fill="white"/>
<path d="M119.837 40.0457C119.561 40.3598 119.239 40.629 118.871 40.7637C118.503 40.9432 118.089 40.9881 117.675 40.9881C117.306 41.0329 116.938 40.9432 116.616 40.8534C116.294 40.7188 115.972 40.5393 115.696 40.27C115.19 39.6866 114.96 38.9237 115.006 38.1608V33H117.168V38.0711C117.168 38.8789 117.537 39.2827 118.319 39.2827C118.595 39.3276 118.917 39.2379 119.193 39.1481C119.469 39.0135 119.699 38.834 119.837 38.5647V33H122V40.8534H119.975L119.837 40.0457Z" fill="white"/>
<path d="M128 35.0739C127.758 35.029 127.556 35.029 127.313 35.029C126.586 35.029 126.141 35.2983 125.899 35.8371V41H124V33.1434H125.778L125.818 34.0862C125.98 33.7719 126.182 33.5025 126.465 33.2781C126.747 33.0985 127.071 32.9638 127.394 33.0087C127.596 33.0087 127.798 33.0536 128 33.0985V35.0739Z" fill="white"/>
<path d="M132.85 41C132.325 41 131.844 40.9559 131.363 40.7793C130.881 40.6028 130.444 40.3379 130.094 39.9849C129.744 39.6318 129.438 39.1904 129.263 38.7049C129.088 38.2194 129 37.7339 129 37.2042V36.9836C129 36.2774 129.131 35.5712 129.438 34.9091C129.7 34.3353 130.138 33.8498 130.706 33.4967C131.275 33.1437 131.931 32.9671 132.588 33.0112C133.069 32.9671 133.506 33.0554 133.944 33.2319C134.381 33.4085 134.775 33.6733 135.081 34.0264C135.694 34.6884 136 35.6595 136 36.8511V37.6897H131.1C131.144 38.1752 131.363 38.5725 131.713 38.9256C132.063 39.2345 132.5 39.4111 132.981 39.3669C133.331 39.3669 133.681 39.3228 134.031 39.1463C134.338 39.0138 134.644 38.749 134.863 38.4842L135.869 39.6318C135.563 40.0731 135.125 40.4262 134.644 40.6469C134.031 40.8676 133.463 41 132.85 41ZM132.588 34.6443C132.413 34.6443 132.237 34.6884 132.062 34.7326C131.888 34.8209 131.756 34.9091 131.625 35.0415C131.362 35.3946 131.188 35.7919 131.144 36.2332H133.988V36.0567C133.988 35.6595 133.856 35.3064 133.638 34.9974C133.506 34.865 133.331 34.7767 133.156 34.6884C132.981 34.6443 132.806 34.6443 132.588 34.6443Z" fill="white"/>
<path d="M140 36.9121C140 36.2088 140.126 35.5055 140.421 34.8901C140.674 34.3187 141.096 33.8352 141.644 33.4835C142.192 33.1319 142.824 33 143.498 33C143.962 33 144.383 33.044 144.805 33.2198C145.226 33.3956 145.606 33.6154 145.943 33.967C146.617 34.6703 146.954 35.5934 146.996 36.5604V37.0879C147.039 38.1429 146.701 39.1538 146.069 39.9451C145.395 40.6484 144.468 41 143.54 41C142.571 41 141.686 40.6044 141.012 39.9451C140.337 39.1538 140 38.0989 140.042 37.044V36.9121H140ZM141.939 37.0879C141.897 37.6593 142.023 38.2747 142.318 38.7582C142.445 38.9341 142.613 39.0659 142.824 39.1978C143.035 39.2857 143.245 39.3297 143.456 39.3736C143.667 39.3736 143.878 39.3297 144.088 39.2418C144.299 39.1538 144.468 38.978 144.594 38.8022C144.889 38.2308 145.058 37.6154 145.016 36.956C145.058 36.3846 144.889 35.7692 144.594 35.2857C144.468 35.1099 144.299 34.9341 144.088 34.8462C143.878 34.7582 143.667 34.7143 143.456 34.7143C143.245 34.7143 143.035 34.7582 142.824 34.8462C142.613 34.9341 142.445 35.1099 142.318 35.2857C142.065 35.8132 141.897 36.4286 141.939 37.0879Z" fill="white"/>
<path d="M149.14 41V34.8479H148V33.3644H149.14V32.7099C149.096 32.3608 149.184 31.9682 149.316 31.6191C149.447 31.27 149.623 30.9646 149.886 30.7028C150.456 30.2229 151.202 29.9611 151.947 30.0047C152.298 30.0047 152.649 30.0483 153 30.1356V31.7064C152.781 31.6627 152.605 31.6191 152.386 31.6627C151.596 31.6627 151.246 32.0118 151.246 32.7535V33.3644H152.781V34.8479H151.246V41H149.14Z" fill="white"/>
<path d="M159.007 33.1006L159.051 33.9932C159.312 33.6808 159.661 33.413 160.01 33.2345C160.403 33.056 160.796 32.9667 161.232 33.0114C161.668 32.9667 162.061 33.056 162.41 33.2791C162.759 33.5023 163.064 33.8147 163.239 34.2164C163.501 33.8147 163.85 33.5023 164.242 33.3238C164.635 33.1006 165.071 33.0114 165.551 33.056C165.9 33.0114 166.249 33.1006 166.555 33.1899C166.86 33.3238 167.166 33.5023 167.384 33.7701C167.82 34.4395 168.038 35.1982 167.995 36.0015V41H165.944V36.0015C165.988 35.6445 165.9 35.3321 165.682 35.0197C165.551 34.8858 165.42 34.7965 165.246 34.7519C165.071 34.7073 164.94 34.6626 164.766 34.7073C164.504 34.7073 164.199 34.7519 163.981 34.9304C163.762 35.1089 163.588 35.3321 163.501 35.5999V40.9554H161.45V35.9569C161.494 35.5999 161.407 35.2428 161.188 34.9751C161.058 34.8412 160.927 34.7965 160.796 34.7073C160.621 34.6626 160.49 34.618 160.316 34.6627C160.054 34.6627 159.792 34.7073 159.574 34.8412C159.356 34.9751 159.181 35.1536 159.051 35.4213V40.9554H157V33.1453H159.007V33.1006Z" fill="white"/>
<path d="M170 36.9121C170 36.2088 170.126 35.5055 170.421 34.8901C170.674 34.3187 171.096 33.8352 171.644 33.4835C172.192 33.1319 172.824 33 173.498 33C173.962 33 174.383 33.044 174.805 33.2198C175.226 33.3956 175.606 33.6154 175.943 33.967C176.617 34.6703 176.954 35.5934 176.996 36.5604V37.0879C177.039 38.1429 176.701 39.1538 176.069 39.9451C175.395 40.6484 174.468 41 173.54 41C172.613 41 171.686 40.6044 171.012 39.9451C170.337 39.1538 170 38.0989 170.042 37.044V36.9121H170ZM171.981 37.0879C171.939 37.6593 172.065 38.2747 172.36 38.7582C172.487 38.9341 172.655 39.0659 172.866 39.1978C173.077 39.2857 173.287 39.3297 173.498 39.3736C173.709 39.4176 173.92 39.3297 174.13 39.2418C174.341 39.1538 174.51 38.978 174.636 38.8022C174.931 38.2308 175.1 37.6154 175.058 36.956C175.1 36.3846 174.931 35.7692 174.636 35.2857C174.51 35.1099 174.341 34.9341 174.13 34.8462C173.92 34.7582 173.709 34.7143 173.498 34.7143C173.287 34.7143 173.077 34.7582 172.866 34.8462C172.655 34.9341 172.487 35.1099 172.36 35.2857C172.065 35.8132 171.939 36.4286 171.981 37.0879Z" fill="white"/>
<path d="M180.005 33.1914L180.052 34.089C180.331 33.73 180.704 33.4607 181.077 33.2812C181.497 33.1017 181.917 33.0119 182.383 33.0119C182.756 32.9671 183.082 33.0568 183.455 33.1466C183.782 33.2812 184.108 33.4607 184.341 33.73C184.808 34.3582 185.041 35.1211 184.994 35.9289V41H182.803V35.9738C182.849 35.6148 182.709 35.2558 182.523 34.9865C182.383 34.8968 182.243 34.807 182.057 34.7173C181.87 34.6724 181.684 34.6275 181.544 34.6724C181.264 34.6724 180.984 34.7173 180.751 34.8519C180.518 34.9865 180.285 35.166 180.192 35.4353V41H178V33.1466H180.005V33.1914Z" fill="white"/>
<path d="M189.85 41C189.325 41 188.844 40.9559 188.362 40.7793C187.881 40.6028 187.444 40.3379 187.094 39.9849C186.744 39.6318 186.438 39.1904 186.263 38.7049C186.088 38.2194 186 37.7339 186 37.2042V36.9836C186 36.2774 186.131 35.5712 186.438 34.9091C186.7 34.3353 187.137 33.8498 187.706 33.4967C188.275 33.1437 188.931 32.9671 189.588 33.0112C190.069 32.9671 190.506 33.0554 190.944 33.2319C191.381 33.4085 191.775 33.6733 192.081 34.0264C192.694 34.6884 193 35.6595 193 36.8511V37.6897H188.1C188.144 38.1752 188.363 38.5725 188.713 38.9256C189.063 39.2345 189.5 39.4111 189.981 39.3669C190.331 39.3669 190.681 39.3228 191.031 39.1463C191.338 39.0138 191.644 38.749 191.862 38.4842L192.869 39.6318C192.563 40.0731 192.125 40.4262 191.644 40.6469C191.031 40.8676 190.419 41 189.85 41ZM189.588 34.6443C189.413 34.6443 189.237 34.6884 189.062 34.7326C188.888 34.8209 188.756 34.9091 188.625 35.0415C188.362 35.3946 188.187 35.7919 188.144 36.2332H190.987V36.0567C190.987 35.6595 190.856 35.3064 190.638 34.9974C190.506 34.865 190.331 34.7767 190.156 34.6884C189.981 34.6443 189.763 34.6443 189.588 34.6443Z" fill="white"/>
<path d="M197 37.8939L198.561 33H201L197.585 42.0694L197.39 42.4735C197.195 42.9224 196.854 43.3265 196.415 43.5959C195.976 43.8653 195.439 44 194.902 44C194.561 44 194.22 43.9551 193.878 43.8653V42.2939H194.22C194.561 42.2939 194.902 42.249 195.195 42.1143C195.439 41.9796 195.585 41.7551 195.683 41.5306L195.976 40.902L193 33H195.439L197 37.8939Z" fill="white"/>
</svg>
