<svg width="20" height="20" viewBox="0 0 20 20" fill="none" xmlns="http://www.w3.org/2000/svg">
<g filter="url(#filter0_d_118_21)">
<path d="M10 20C4.53562 20 0.0899963 15.5141 0.0899963 10C0.0899963 4.48594 4.53562 0 10 0C15.4644 0 19.91 4.48594 19.91 10H19.285C19.285 4.83063 15.1198 0.625 10 0.625C4.88015 0.625 0.714996 4.83063 0.714996 10C0.714996 15.1694 4.88015 19.375 10 19.375V20Z" fill="#52FF00"/>
<path d="M19.905 10.3153L19.2803 10.2945C19.2836 10.1967 19.285 10.0984 19.285 10H19.91C19.91 10.1055 19.9084 10.2105 19.905 10.3153Z" fill="#52FF00"/>
<path d="M10.6389 19.9795L10.5989 19.3558C10.8014 19.3428 11.0058 19.3228 11.2059 19.2965L11.2872 19.9164C11.0733 19.9444 10.8553 19.9656 10.6389 19.9795ZM11.9469 19.8069L11.8242 19.194C12.0273 19.1533 12.2322 19.1048 12.4333 19.0498L12.5984 19.6525C12.3834 19.7114 12.1642 19.7633 11.9469 19.8069ZM13.2375 19.4539L13.0319 18.8637C13.2283 18.7953 13.4248 18.7192 13.6156 18.6378L13.8609 19.2125C13.657 19.2995 13.4473 19.3808 13.2375 19.4539ZM14.4666 18.929L14.1828 18.3722C14.3675 18.278 14.5517 18.1759 14.7308 18.0689L15.0519 18.6051C14.8608 18.7194 14.6639 18.8283 14.4666 18.929ZM15.6136 18.2419L15.2569 17.7286C15.4272 17.6103 15.5963 17.4844 15.7595 17.3539L16.1495 17.8422C15.9755 17.9811 15.7952 18.1156 15.6136 18.2419ZM16.6578 17.407L16.2358 16.9462C16.3892 16.8058 16.54 16.658 16.6838 16.5073L17.1358 16.9392C16.9825 17.0997 16.8216 17.2572 16.6578 17.407ZM17.5813 16.4405L17.1019 16.0395C17.2348 15.8806 17.3645 15.7144 17.4877 15.5451L17.993 15.913C17.8614 16.0933 17.7231 16.2708 17.5813 16.4405ZM18.3683 15.359L17.8397 15.0258C17.9506 14.8497 18.0572 14.6675 18.1561 14.484L18.7061 14.7812C18.6003 14.977 18.4866 15.1714 18.3683 15.359ZM19.0045 14.1819L18.4359 13.9225C18.5228 13.7319 18.6041 13.5369 18.6773 13.3431L19.262 13.564C19.1838 13.7709 19.0972 13.9787 19.0045 14.1819ZM19.4778 12.9301L18.8797 12.7489C18.9402 12.5495 18.9945 12.3458 19.0416 12.1431L19.6503 12.284C19.6003 12.5003 19.5422 12.7176 19.4778 12.9301ZM19.7795 11.6278L19.1625 11.5279C19.1959 11.3223 19.2228 11.1129 19.2425 10.9058L19.8647 10.965C19.8436 11.1858 19.8148 11.4087 19.7795 11.6278Z" fill="#52FF00"/>
<path d="M10 20V19.375C10.0991 19.375 10.198 19.3731 10.2963 19.3706L10.3133 19.9953C10.2092 19.9981 10.1048 20 10 20Z" fill="#52FF00"/>
<path d="M8.36265 14.7869L4.6225 10.9623L6.93719 8.62467L8.38594 10.087L13.2134 5.21436L15.5302 7.55342L8.36265 14.7869ZM5.49937 10.9651L8.36547 13.8961L14.6505 7.55342L13.2136 6.10248L8.38609 10.975L6.9375 9.51279L5.49937 10.9651Z" fill="#52FF00"/>
</g>
<defs>
<filter id="filter0_d_118_21" x="-0.910004" y="-1" width="21.82" height="22" filterUnits="userSpaceOnUse" color-interpolation-filters="sRGB">
<feFlood flood-opacity="0" result="BackgroundImageFix"/>
<feColorMatrix in="SourceAlpha" type="matrix" values="0 0 0 0 0 0 0 0 0 0 0 0 0 0 0 0 0 0 127 0" result="hardAlpha"/>
<feOffset/>
<feGaussianBlur stdDeviation="0.5"/>
<feComposite in2="hardAlpha" operator="out"/>
<feColorMatrix type="matrix" values="0 0 0 0 1 0 0 0 0 0.991667 0 0 0 0 0.991667 0 0 0 1 0"/>
<feBlend mode="normal" in2="BackgroundImageFix" result="effect1_dropShadow_118_21"/>
<feBlend mode="normal" in="SourceGraphic" in2="effect1_dropShadow_118_21" result="shape"/>
</filter>
</defs>
</svg>
