<svg width="20" height="20" viewBox="0 0 20 20" fill="none" xmlns="http://www.w3.org/2000/svg">
<g clip-path="url(#clip0_122_47)">
<path d="M12.8267 10.3556C13.0459 10.2923 13.559 10.1437 13.7975 9.44218L14.289 7.99701L14.4866 8.06415C14.5771 8.09496 14.6763 8.04611 14.7071 7.95562L14.9708 7.18027C15.0016 7.08978 14.9527 6.99063 14.8622 6.95986L8.49136 4.79363C8.40091 4.76286 8.30164 4.81176 8.27088 4.90221L8.00722 5.67752C7.9765 5.76797 8.02539 5.86715 8.1158 5.89796L8.31347 5.96518L7.81322 7.43667C7.577 8.13133 7.73327 8.36591 8.02967 8.72092L9.31885 10.2647L9.17515 10.6873C8.68186 10.7943 7.3928 11.0752 7.21927 11.1253C7.00019 11.1887 6.48693 11.3372 6.24836 12.0388L5.8253 13.2831L5.62759 13.216C5.53718 13.1852 5.43787 13.234 5.40707 13.3245L5.14354 14.0998C5.11273 14.1903 5.16162 14.2894 5.25211 14.3203L11.6229 16.4866C11.7133 16.5173 11.8126 16.4684 11.8434 16.3779L12.1069 15.6027C12.1377 15.5122 12.0889 15.413 11.9983 15.3822L11.8007 15.315L12.2326 14.0443C12.4688 13.3497 12.3127 13.115 12.0162 12.7602L10.7271 11.2164L10.8707 10.7938C11.364 10.6868 12.6531 10.4059 12.8267 10.3556ZM10.1344 11.4825L11.5362 13.161C11.6438 13.2898 11.7007 13.3602 11.7162 13.4245C11.7348 13.5019 11.7099 13.6388 11.6405 13.8429L11.2085 15.1136L6.41752 13.4846L6.84049 12.2403C6.97407 11.8475 7.21622 11.7774 7.39297 11.7263C7.5312 11.6863 8.71704 11.4263 9.4804 11.2612C9.58766 11.238 9.67502 11.1601 9.71036 11.0561L9.96759 10.2997C10.0026 10.1964 9.98147 10.0823 9.91157 9.99861L8.51393 8.32505L8.50969 8.3199C8.4021 8.1911 8.34514 8.12079 8.32973 8.05637C8.3112 7.97905 8.33591 7.84226 8.4054 7.63805L8.90568 6.16656L13.6968 7.7956L13.2053 9.24081C13.0718 9.63363 12.8297 9.70365 12.653 9.75481C12.5148 9.79481 11.3289 10.0549 10.5657 10.2199C10.4584 10.2431 10.3709 10.3209 10.3355 10.425L10.0784 11.1813C10.0433 11.2847 10.0645 11.3986 10.1344 11.4825Z" fill="#EBFF00"/>
<path d="M13.9193 17.4471C13.7795 17.5263 13.6353 17.6022 13.491 17.6725C13.4676 17.6839 13.4451 17.6964 13.4233 17.7099C13.4002 17.7179 13.3771 17.7273 13.3543 17.7379C12.728 18.0299 12.0749 18.2355 11.4021 18.3548C11.3935 18.356 11.3849 18.3565 11.3762 18.3581C11.2175 18.3861 11.0561 18.4095 10.8965 18.4278C10.8947 18.4281 10.893 18.4285 10.8912 18.4287C10.5981 18.461 10.3016 18.4775 10.002 18.4775C6.54779 18.4775 3.60197 16.2611 2.5105 13.1761C2.49406 13.129 2.47751 13.082 2.4619 13.0349C2.20026 12.2481 2.05816 11.4073 2.05816 10.5338C2.05816 9.65844 2.20088 8.81574 2.46363 8.02754C2.46935 8.01033 2.47487 7.99323 2.48068 7.97597C2.49637 7.93009 2.5126 7.88437 2.52916 7.83877C2.53686 7.81735 2.54464 7.79606 2.55255 7.77481C3.45954 5.33359 5.53416 3.45556 8.0942 2.82211C8.09581 2.82174 8.09746 2.82162 8.09906 2.82125C8.13692 2.81186 8.17506 2.80271 8.21324 2.7939C8.21752 2.79295 8.22164 2.79138 8.22576 2.79035C8.78425 2.66234 9.36497 2.59351 9.9609 2.59046L9.96778 3.40721C9.96988 3.66077 10.13 3.734 10.3233 3.57011L12.0486 2.10772C12.2419 1.94383 12.2398 1.67812 12.0435 1.51748L10.294 0.0842531C10.0979 -0.0763443 9.93915 -0.000432251 9.9413 0.253088L9.94817 1.06823C7.43974 1.08211 5.08359 2.06497 3.30829 3.84019C3.1334 4.01508 2.96651 4.19574 2.80723 4.38146C2.80628 4.38253 2.80529 4.38339 2.8043 4.38455C2.79841 4.39139 2.79285 4.39851 2.78704 4.40535C1.3897 6.04506 0.60191 8.08871 0.540085 10.2568C0.538561 10.2736 0.536749 10.2903 0.536337 10.3075C0.534648 10.3799 0.533783 10.4534 0.533783 10.5261C0.533783 10.6453 0.536213 10.7661 0.540703 10.8853C0.541197 10.8992 0.543009 10.9129 0.544369 10.9266C0.624441 12.9019 1.30748 14.7695 2.50584 16.3165C2.50992 16.3218 2.51318 16.3275 2.51729 16.3328C2.63435 16.4838 2.75813 16.6335 2.8847 16.7775C2.89286 16.7868 2.9018 16.7948 2.9102 16.8036C3.03834 16.9481 3.17064 17.0897 3.30834 17.2273C4.71384 18.6329 6.48354 19.5416 8.40452 19.8662C8.41037 19.8673 8.41626 19.8685 8.42211 19.8695C8.42648 19.8702 8.4308 19.8705 8.43508 19.8711C8.9481 19.9561 9.4717 20 10.002 20C11.3975 20 12.7418 19.7031 13.9975 19.1177C14.0246 19.1051 14.0503 19.0907 14.0751 19.0754C14.1032 19.0657 14.1308 19.0542 14.1581 19.0409C14.3304 18.9568 14.5025 18.8664 14.6693 18.772C15.0352 18.5648 15.1639 18.1004 14.9568 17.7345C14.7496 17.3686 14.2851 17.24 13.9193 17.4471Z" fill="#EBFF00"/>
<path d="M16.5983 6.10314C16.7452 6.32181 16.9858 6.43982 17.2307 6.43982C17.3767 6.43982 17.5244 6.39793 17.6546 6.31036C18.0036 6.07587 18.0963 5.60298 17.8618 5.25402C17.7548 5.09482 17.6417 4.93694 17.5251 4.78483C17.2697 4.45087 16.792 4.38735 16.4581 4.64273C16.1242 4.89818 16.0606 5.37598 16.3161 5.70982C16.4138 5.83755 16.5087 5.96989 16.5983 6.10314Z" fill="#EBFF00"/>
<path d="M17.565 8.10228C17.614 8.25514 17.6589 8.41186 17.6988 8.56818C17.7866 8.91252 18.0962 9.14158 18.4359 9.14158C18.4981 9.14158 18.5614 9.13387 18.6244 9.11781C19.0318 9.01401 19.2779 8.59952 19.1741 8.1922C19.1267 8.00631 19.0732 7.81985 19.0149 7.63796C18.8868 7.2376 18.4582 7.01686 18.0579 7.14513C17.6575 7.27339 17.4368 7.70192 17.565 8.10228Z" fill="#EBFF00"/>
<path d="M17.0801 15.6578C16.762 15.3829 16.2814 15.4178 16.0065 15.7357C15.9012 15.8575 15.791 15.9775 15.6787 16.0923C15.3848 16.393 15.3904 16.8749 15.6912 17.1688C15.8393 17.3135 16.0313 17.3856 16.2231 17.3856C16.4209 17.3856 16.6186 17.3089 16.7676 17.1564C16.9013 17.0195 17.0328 16.8766 17.1581 16.7316C17.4329 16.4135 17.3981 15.9327 17.0801 15.6578Z" fill="#EBFF00"/>
<path d="M18.7278 10.0394C18.3068 10.0268 17.9566 10.3574 17.9442 10.7775C17.9394 10.9385 17.9295 11.1012 17.9148 11.2613C17.8763 11.6799 18.1846 12.0505 18.6032 12.0889C18.6269 12.0911 18.6504 12.0921 18.6737 12.0921C19.0625 12.0921 19.3947 11.7954 19.4308 11.4005C19.4484 11.2094 19.4602 11.0152 19.4659 10.823C19.4783 10.403 19.148 10.052 18.7278 10.0394Z" fill="#EBFF00"/>
<path d="M18.3892 12.9911C17.9975 12.8378 17.556 13.0309 17.4028 13.4224C17.3442 13.5722 17.2801 13.7223 17.2124 13.8684C17.0357 14.2499 17.2016 14.7023 17.5831 14.879C17.6867 14.9271 17.7955 14.9497 17.9026 14.9497C18.19 14.9497 18.465 14.7862 18.5938 14.5084C18.6743 14.3344 18.7507 14.1558 18.8204 13.9775C18.9737 13.586 18.7806 13.1444 18.3892 12.9911Z" fill="#EBFF00"/>
<path d="M15.7969 3.99294C16.0471 3.65502 15.976 3.17833 15.6381 2.92815C15.4843 2.81418 15.3248 2.7035 15.164 2.59896C14.8116 2.36983 14.3401 2.46967 14.1109 2.82213C13.8818 3.17455 13.9817 3.646 14.334 3.87522C14.4691 3.96295 14.6029 4.056 14.7322 4.15172C14.8684 4.25251 15.0272 4.3012 15.1847 4.3012C15.4176 4.3012 15.6476 4.19456 15.7969 3.99294Z" fill="#EBFF00"/>
</g>
<defs>
<clipPath id="clip0_122_47">
<rect width="20" height="20" fill="white"/>
</clipPath>
</defs>
</svg>
