<svg width="71" height="55" viewBox="0 0 71 55" fill="none" xmlns="http://www.w3.org/2000/svg">
<path d="M70.7143 6.96013C68.1973 8.00375 65.3207 8.69951 62.4442 9.04738C65.3207 7.30802 67.8377 4.52506 68.9164 1.39421C66.0398 3.13357 63.1633 4.17719 59.5676 4.87293C57.0506 2.08996 53.0952 0.350586 49.1399 0.350586C41.2293 0.350586 34.757 6.61228 34.757 14.2655C34.757 15.3091 34.757 16.3527 35.1166 17.3963C23.2507 16.7005 12.4635 11.1346 5.27209 2.78568C4.19337 4.87291 3.47423 7.30801 3.47423 9.74312C3.47423 14.6133 5.99125 18.7878 9.94655 21.2229C7.42954 21.2229 5.27209 20.5272 3.47423 19.4835C3.47423 26.0931 8.50823 32.0069 14.9805 33.0505C13.9018 33.3984 12.4636 33.3984 11.0253 33.3984C9.94656 33.3984 9.2274 33.3984 8.14868 33.0505C9.94655 38.6165 15.3401 42.791 21.8125 42.791C16.7784 46.6175 10.6657 48.7048 3.83382 48.7048C2.75511 48.7048 1.67639 48.7048 0.238098 48.3569C6.7104 52.1835 14.2614 54.6186 22.5316 54.6186C49.1399 54.6186 63.5228 33.3984 63.5228 14.9612V13.2218C66.3994 12.1782 68.9164 9.74311 70.7143 6.96013Z" fill="white"/>
</svg>
