<svg width="22" height="18" viewBox="0 0 22 18" fill="none" xmlns="http://www.w3.org/2000/svg">
<path fill-rule="evenodd" clip-rule="evenodd" d="M1.45581 7.55516C7.14045 5.07845 10.9311 3.44565 12.8278 2.65676C18.2431 0.404329 19.3684 0.0130578 20.1018 0.000137756C20.2631 -0.00270386 20.6238 0.0372739 20.8575 0.226851C21.0547 0.386927 21.109 0.603166 21.135 0.754935C21.161 0.906705 21.1933 1.25244 21.1676 1.52259C20.8741 4.606 19.6043 12.0886 18.9583 15.5421C18.685 17.0034 18.1468 17.4933 17.6257 17.5413C16.4933 17.6455 15.6334 16.7929 14.5366 16.074C12.8204 14.9489 11.8508 14.2486 10.1849 13.1508C8.25959 11.8821 9.50766 11.1848 10.6049 10.0452C10.892 9.74693 15.8814 5.2087 15.978 4.79701C15.99 4.74552 16.0012 4.5536 15.8872 4.45226C15.7732 4.35091 15.6049 4.38557 15.4835 4.41313C15.3114 4.4522 12.5696 6.26438 7.25827 9.84969C6.48004 10.3841 5.77514 10.6445 5.14358 10.6308C4.44732 10.6158 3.10802 10.2371 2.11238 9.9135C0.891192 9.51654 -0.0793851 9.30667 0.00513033 8.6325C0.0491512 8.28136 0.53271 7.92224 1.45581 7.55516Z" fill="white"/>
</svg>
